<?xml version="1.0" standalone="no"?>
<!DOCTYPE svg PUBLIC "-//W3C//DTD SVG 1.1//EN" "http://www.w3.org/Graphics/SVG/1.1/DTD/svg11.dtd" >
<!--
2013-9-30: Created.
-->
<svg>
<metadata>
Created by iconfont
</metadata>
<defs>

<font id="iconfont" horiz-adv-x="1024" >
  <font-face
    font-family="iconfont"
    font-weight="500"
    font-stretch="normal"
    units-per-em="1024"
    ascent="896"
    descent="-128"
  />
    <missing-glyph />
    
    <glyph glyph-name="wenzhang" unicode="&#58880;" d="M1137.575865 896l0-795.939663-267.130435-228.060337-870.44543 0 0 1024 1137.575865 0zM795.939663 213.636202l-626.030169 0 0-113.575865 626.030169 0 0 113.575865zM966.757764 440.787933l-796.84827 0 0-113.575865 796.84827 0 0 113.575865zM966.757764 668.84827l-796.84827 0 0-114.484472 796.84827 0 0 114.484472z"  horiz-adv-x="1138" />

    
    <glyph glyph-name="wenzhang1" unicode="&#58881;" d="M963.584 896q24.576 0 42.496-17.408t17.92-43.008l0-692.224q0-8.192-17.92-31.232t-45.056-53.248-60.416-63.488-63.488-60.416-53.248-45.056-31.232-17.92l-692.224 0q-24.576 0-42.496 17.92t-17.92 42.496l0 903.168q0 25.6 17.92 43.008t42.496 17.408l903.168 0zM649.216 83.968q13.312 0 22.528 9.728t9.216 23.04-9.216 22.528-22.528 9.216l-486.4 0q-13.312 0-23.04-9.216t-9.728-22.528 9.728-23.04 23.04-9.728l486.4 0zM909.312 344.064q14.336 0 23.552 9.728t9.216 24.064q0 12.288-9.216 21.504t-23.552 9.216l-746.496 0q-13.312 0-23.04-9.216t-9.728-21.504q0-14.336 9.728-24.064t23.04-9.728l746.496 0zM909.312 570.368q14.336 0 23.552 9.728t9.216 24.064q0 13.312-9.216 22.528t-23.552 9.216l-746.496 0q-13.312 0-23.04-9.216t-9.728-22.528q0-14.336 9.728-24.064t23.04-9.728l746.496 0z"  horiz-adv-x="1024" />

    
    <glyph glyph-name="wenzhang2" unicode="&#58882;" d="M0 896l1137.575865 0 0-795.939663-267.130435-228.060337-870.44543 0 0 1024zM795.939663 100.060337l0 113.575865-626.030169 0 0-113.575865 626.030169 0zM966.757764 327.212067l0 113.575865-796.84827 0 0-113.575865 796.84827 0zM966.757764 554.363798l0 114.484472-796.84827 0 0-114.484472 796.84827 0z"  horiz-adv-x="1138" />

    
    <glyph glyph-name="pinglun" unicode="&#58883;" d="M511.999488 48.117137c-28.734592 0-56.729303 2.604314-83.969807 7.099698L231.232673-64.185602 231.232673 134.59265C128.618486 206.644663 62.772174 317.110567 62.772174 441.174164c0 217.07906 201.129864 393.058051 449.228338 393.058051 248.084146 0 449.228338-175.980014 449.228338-393.058051C961.227826 224.082824 760.083635 48.117137 511.999488 48.117137zM511.999488 778.08238c-217.086932 0-393.074156-150.851707-393.074156-336.907193 0-114.166179 66.421434-214.898395 167.761552-275.820929l-1.768346-130.234133 132.171551 79.455633c30.4487-6.497994 62.117231-10.308787 94.910422-10.308787 217.101258 0 393.073132 150.825101 393.073132 336.907193C905.073644 627.230674 729.10177 778.08238 511.999488 778.08238zM736.614169 385.023306c-31.011542 0-56.154182 25.128307-56.154182 56.150858 0 31.010271 25.14264 56.151881 56.154182 56.151881s56.154182-25.14161 56.154182-56.151881C792.768351 410.151613 767.624687 385.023306 736.614169 385.023306zM511.999488 385.023306c-31.010518 0-56.153158 25.128307-56.153158 56.150858 0 31.010271 25.14264 56.151881 56.153158 56.151881 31.011542 0 56.154182-25.14161 56.154182-56.151881C568.15367 410.151613 543.01103 385.023306 511.999488 385.023306zM287.385831 385.023306c-31.010518 0-56.153158 25.128307-56.153158 56.150858 0 31.010271 25.14264 56.151881 56.153158 56.151881s56.153158-25.14161 56.153158-56.151881C343.53899 410.151613 318.39635 385.023306 287.385831 385.023306z"  horiz-adv-x="1024" />

    
    <glyph glyph-name="24" unicode="&#58904;" d="M251.25 359.6l521.5 0 0-29.8-521.5 0 0 29.8ZM251.25 195.699l521.5 0 0-29.8-521.5 0 0 29.8ZM251.25 31.8l253.3 0 0-29.801-253.3 0 0 29.801ZM884.457 510.593l0 0.189-0.189 0L649.214 746.796 649.214 747l-29.8 0L610 747 139.5 747l0-894 744.957 0L884.457 471.408l0 39.068 0.043 0.059L884.457 510.593zM649.214 704.555l195.155-195.94-195.155 0.015L649.214 704.555zM854.656-117.2 169.3-117.2 169.3 717.2l450.114 0 0-208.571L619.414 493.7l0-14.9 235.242 0.015L854.656-117.2z"  horiz-adv-x="1024" />

    
    <glyph glyph-name="daohangfenlei" unicode="&#58886;" d="M151.277 555.671h-46.544c-19.279 0-34.908 15.629-34.908 34.908s15.629 34.908 34.908 34.908h46.544c19.279 0 34.908-15.629 34.908-34.908s-15.629-34.908-34.908-34.908zM919.255 555.671h-628.337c-19.279 0-34.908 15.629-34.908 34.908s15.629 34.908 34.908 34.908h628.338c19.279 0 34.908-15.629 34.908-34.908s-15.629-34.908-34.909-34.908zM151.277 253.091h-46.544c-19.279 0-34.908 15.63-34.908 34.908 0 19.279 15.629 34.908 34.908 34.908h46.544c19.279 0 34.908-15.629 34.908-34.908-0.001-19.278-15.629-34.908-34.908-34.908zM919.255 253.091h-628.337c-19.279 0-34.908 15.63-34.908 34.908s15.629 34.908 34.908 34.908h628.338c19.279 0 34.908-15.629 34.908-34.908s-15.629-34.908-34.909-34.908zM151.277-49.441h-46.544c-19.279 0-34.908 15.629-34.908 34.908s15.629 34.908 34.908 34.908h46.544c19.279 0 34.908-15.629 34.908-34.908s-15.629-34.908-34.908-34.908zM919.255-49.441h-628.337c-19.279 0-34.908 15.629-34.908 34.908s15.629 34.908 34.908 34.908h628.338c19.279 0 34.908-15.629 34.908-34.908s-15.629-34.908-34.909-34.908z"  horiz-adv-x="1024" />

    
    <glyph glyph-name="pinglun1" unicode="&#58920;" d="M512 830.464C230.4 830.464 1.024 638.976 1.024 403.456c0-99.328 39.936-190.464 108.544-263.168l0 0c0 0-5.12-180.224-43.008-203.776 0 0 138.24 0 226.304 79.872 66.56-26.624 140.288-40.96 219.136-40.96 281.6 0 510.976 191.488 510.976 427.008C1022.976 638.976 793.6 830.464 512 830.464zM512 17.408c-71.68 0-140.288 13.312-203.776 37.888-5.12 2.048-10.24 3.072-15.36 3.072-10.24 0-19.456-4.096-27.648-10.24-38.912-35.84-91.136-53.248-132.096-61.44 4.096 16.384 7.168 34.816 9.216 56.32 5.12 40.96 7.168 78.848 7.168 92.16 2.048 12.288-2.048 24.576-10.24 33.792-63.488 67.584-97.28 149.504-97.28 234.496 0 212.992 210.944 386.048 470.016 386.048s470.016-173.056 470.016-386.048C982.016 190.464 771.072 17.408 512 17.408zM321.536 384m-55.296 0a5.4 5.4 0 1 0 110.592 0 5.4 5.4 0 1 0-110.592 0ZM527.36 384m-55.296 0a5.4 5.4 0 1 0 110.592 0 5.4 5.4 0 1 0-110.592 0ZM733.184 384m-55.296 0a5.4 5.4 0 1 0 110.592 0 5.4 5.4 0 1 0-110.592 0Z"  horiz-adv-x="1024" />

    
    <glyph glyph-name="pinglun2" unicode="&#58916;" d="M920.3328 896 102.22464 896C45.7664 896 0 850.2336 0 793.7856l0-511.14624c0-56.44928 45.7664-102.2144 102.22464-102.2144l178.98368 0 230.06976-306.6752 230.06976 306.6752L920.3328 180.42496c56.44928 0 102.22464 45.7664 102.22464 102.2144L1022.55744 793.7856C1022.55872 850.2336 976.78208 896 920.3328 896zM230.4 501.12c-42.41536 0-76.8 34.38464-76.8 76.8s34.38464 76.8 76.8 76.8 76.8-34.38464 76.8-76.8S272.81536 501.12 230.4 501.12zM512 501.12c-42.41536 0-76.8 34.38464-76.8 76.8s34.38464 76.8 76.8 76.8 76.8-34.38464 76.8-76.8S554.41536 501.12 512 501.12zM793.6 501.12c-42.41536 0-76.8 34.38464-76.8 76.8s34.38464 76.8 76.8 76.8 76.8-34.38464 76.8-76.8S836.01536 501.12 793.6 501.12z"  horiz-adv-x="1024" />

    
    <glyph glyph-name="htmal5icon25" unicode="&#58941;" d="M413.679717 289.419901c-109.2451 0-196.641589 87.396489-196.641589 196.642612s87.396489 196.641589 196.641589 196.641589 196.641589-87.396489 196.641589-196.641589S522.924817 289.419901 413.679717 289.419901zM675.869185 289.419901l-34.958186 0-13.109576 13.109576c43.698245 48.067762 69.917396 113.615641 69.917396 183.533037 0 157.312862-126.725216 284.038078-284.038078 284.038078-157.313885 0-284.038078-126.724193-284.038078-284.038078 0-157.313885 126.724193-284.038078 284.038078-284.038078 69.917396 0 135.464251 26.219151 183.532013 69.917396l13.109576-13.109576 0-34.958186 218.491223-218.491223 65.546855 65.546855L675.869185 289.419901z"  horiz-adv-x="1024" />

    
    <glyph glyph-name="shijian" unicode="&#58915;" d="M512 18.112776c-49.759287 0-97.203856 9.636474-142.331659 28.907377-45.124733 19.269879-84.028788 45.245484-116.715235 77.932953-32.68747 32.686447-58.664098 71.590502-77.932953 116.715235-19.269879 45.128827-28.907377 92.573395-28.907377 142.331659s9.636474 97.203856 28.907377 142.331659c19.269879 45.124733 45.245484 84.031858 77.932953 116.715235 32.686447 32.68747 71.590502 58.664098 116.715235 77.932953 45.128827 19.269879 92.573395 28.907377 142.331659 28.907377s97.203856-9.636474 142.331659-28.907377c45.124733-19.269879 84.032882-45.245484 116.715235-77.932953 32.68747-32.686447 58.664098-71.590502 77.932953-116.715235 19.269879-45.128827 28.907377-92.573395 28.907377-142.331659s-9.636474-97.203856-28.907377-142.331659c-19.269879-45.124733-45.245484-84.028788-77.932953-116.715235-32.686447-32.68747-71.590502-58.664098-116.715235-77.932953C609.202832 27.74925 561.758264 18.112776 512 18.112776L512 18.112776 512 18.112776zM512 658.41593c-49.759287 0-95.741551-12.19474-137.940652-36.588313s-75.492368-57.687864-99.885941-99.885941c-24.393573-42.199101-36.588313-88.181365-36.588313-137.940652s12.19474-95.741551 36.588313-137.940652 57.687864-75.492368 99.885941-99.885941 88.181365-36.588313 137.940652-36.588313 95.741551 12.19474 137.940652 36.588313c42.199101 24.393573 75.492368 57.687864 99.885941 99.885941 24.393573 42.199101 36.588313 88.181365 36.588313 137.940652s-12.19474 95.741551-36.588313 137.940652c-24.393573 42.199101-57.687864 75.492368-99.885941 99.885941C607.741551 646.220167 561.758264 658.41593 512 658.41593L512 658.41593 512 658.41593zM649.571239 337.900056 512 337.900056c-12.684904 0-23.418362 4.51278-32.197306 13.534248-8.783037 9.026584-13.175067 19.881816-13.175067 32.565696L466.627626 520.843668c0 12.68081 4.39203 23.536043 13.175067 32.561603 8.778944 9.025561 19.512403 13.538341 32.197306 13.538341s23.539112-4.51278 32.565696-13.538341c9.021467-9.025561 13.534248-19.880793 13.534248-32.561603l0-91.472318 91.472318 0c12.198833 0 22.807449-4.39203 31.833009-13.175067 9.025561-8.778944 13.538341-19.512403 13.538341-32.197306s-4.51278-23.539112-13.538341-32.565696C672.379711 342.412836 661.770072 337.900056 649.571239 337.900056L649.571239 337.900056 649.571239 337.900056zM649.571239 337.900056"  horiz-adv-x="1024" />

    
    <glyph glyph-name="yuedu" unicode="&#59398;" d="M879.978667 775.872 490.453333 775.872l-232.661333 108.586667c-12.8 5.952-26.304 9.002667-40.170667 9.002667-52.330667 0-94.954667-42.645333-94.954667-95.061333l0-24.256C53.376 763.754667 0 704.021333 0 631.872L0 18.56c0-79.445333 64.618667-144.021333 144.021333-144.021333L512-125.461333l367.978667 0c79.445333 0 144.021333 64.576 144.021333 144.021333L1024 631.872C1024 711.296 959.424 775.893333 879.978667 775.872zM165.397333 798.4c0 32.32 27.136 52.330667 52.224 52.330667 7.573333 0 14.997333-1.685333 22.101333-4.992l250.922667-117.098667 0-774.677333L195.541333 91.648c-18.304 8.618667-30.144 27.136-30.144 47.402667L165.397333 798.4zM42.730667 18.56 42.730667 631.893333c0 48.533333 34.325333 89.088 79.936 98.922667l0-591.786667c0-36.757333 21.482667-70.549333 54.784-86.08l290.816-135.658667L144.021333-82.709333C88.149333-82.709333 42.730667-37.269333 42.730667 18.56zM981.269333 18.56c0-55.850667-45.44-101.290667-101.290667-101.290667L532.970667-82.730667c0.149333 1.066667 0.405333 2.112 0.405333 3.178667L533.376 733.162667l346.602667 0c55.850667 0 101.290667-45.44 101.290667-101.290667L981.269333 18.56z"  horiz-adv-x="1024" />

    
    <glyph glyph-name="fenlei" unicode="&#58896;" d="M333.787794 674.316684l587.512363 0c47.837766 0 48.601189 66.276582 0 66.276582L333.787794 740.593266C286.716521 740.593266 285.186604 674.316684 333.787794 674.316684zM125.659842 767.121705c-33.777888 0-61.173109-27.420805-61.173109-61.248837 0-33.852593 27.396244-61.271351 61.173109-61.271351 33.780958 0 61.176179 27.418758 61.176179 61.271351C186.836021 739.7009 159.4408 767.121705 125.659842 767.121705zM921.300157 418.301846 333.787794 418.301846c-47.071273 0-48.601189-66.274535 0-66.274535l587.512363 0C969.13997 352.029358 969.901346 418.301846 921.300157 418.301846zM125.659842 444.829262c-33.777888 0-61.173109-27.420805-61.173109-61.247814 0-33.852593 27.396244-61.273398 61.173109-61.273398 33.780958 0 61.176179 27.420805 61.176179 61.273398C186.836021 417.408457 159.4408 444.829262 125.659842 444.829262zM921.300157 96.014519 333.787794 96.014519c-47.071273 0-48.601189-66.277605 0-66.277605l587.512363 0C969.13997 29.736914 969.901346 96.014519 921.300157 96.014519zM125.659842 122.539888c-33.777888 0-61.173109-27.420805-61.173109-61.248837 0-33.852593 27.396244-61.273398 61.173109-61.273398 33.780958 0 61.176179 27.420805 61.176179 61.273398C186.836021 95.119083 159.4408 122.539888 125.659842 122.539888z"  horiz-adv-x="1025" />

    
    <glyph glyph-name="pinglun3" unicode="&#58893;" d="M949.570847 683.326273l-41.801035-41.517579L768.565377 780.156622l41.801035 41.459251c15.340383 15.283078 39.522132 16.084327 53.892421 1.768273l87.024006-86.454024C965.710432 722.617138 964.91123 698.606281 949.570847 683.326273L949.570847 683.326273zM580.373227 316.405509 441.169815 454.755484l306.238706 304.299541 139.205459-138.348951L580.373227 316.405509 580.373227 316.405509zM560.984644 297.130514l-194.863083-55.314817 55.659671 193.666838L560.984644 297.130514 560.984644 297.130514zM236.551554 717.881276c-48.13223 0-87.081311-38.949081-87.081311-87.024006l0-522.372232c0-48.062646 38.962384-87.026052 87.026052-87.026052l522.485819 0c48.063669 0 87.028099 38.963407 87.028099 87.028099L846.010213 456.751954l87.079264 87.028099 0-464.321094c0-80.124875-64.954361-145.078213-145.078213-145.078213L207.468169-65.619254c-80.124875 0-145.078213 64.954361-145.078213 145.078213L62.389956 659.885398c0 80.124875 64.954361 145.078213 145.078213 145.078213l464.435705 0-87.083357-87.083357L236.551554 717.880253 236.551554 717.881276z"  horiz-adv-x="1024" />

    
    <glyph glyph-name="2" unicode="&#58914;" d="M747.52 310.272l14.336 14.336c16.384 16.384 16.384 43.008 0 59.392l-286.72 286.72-225.28 6.144 2.048-51.2 188.416-6.144L747.52 310.272zM720.896 316.416l-286.72 286.72-225.28 6.144 6.144-225.28 286.72-286.72c16.384-16.384 43.008-16.384 59.392 0l157.696 157.696C739.328 273.408 739.328 300.032 720.896 316.416zM317.44 459.776c-24.576 0-45.056 20.48-45.056 45.056 0 24.576 20.48 45.056 45.056 45.056 24.576 0 45.056-20.48 45.056-45.056C360.448 480.256 342.016 459.776 317.44 459.776z"  horiz-adv-x="1024" />

    
    <glyph glyph-name="dianzan" unicode="&#58892;" d="M884.876 472.857h-237.905c92.186 340.464-63.517 357.853-63.517 357.853-65.993 0-52.312-52.182-57.303-60.882 0-166.502-176.85-296.972-176.85-296.972v-472.172c0-46.608 63.517-63.394 88.433-63.394h357.452c33.641 0 61.036 88.224 61.036 88.224 88.434 300.706 88.434 390.177 88.434 390.177 0.001 62.128-59.781 57.164-59.781 57.164v0 0zM251.671 472.7h-142.457c-29.42 0-29.873-28.896-29.873-28.896l29.42-476.203c0-30.309 30.361-30.309 30.361-30.309h123.297c25.686 0 25.459 20.050 25.459 20.050l-0 479.247c0 36.574-36.208 36.111-36.208 36.111v0 0zM251.671 472.7z"  horiz-adv-x="1024" />

    
    <glyph glyph-name="icon00092" unicode="&#58952;" d="M511.679 832.024c-247.537 0-448.213-200.662-448.213-448.185s200.676-448.191 448.213-448.191c247.537 0 448.199 200.669 448.199 448.191 0.001 247.522-200.661 448.185-448.199 448.185zM720.877 316.933l-0.525-3.603-0.776-6.186-1.080-5.588-1.634-5.048-0.612-2.057-1.139-2.466-0.963-1.735-1.283-2.131-1.136-1.344-1.446-1.721-1.268-1.402-1.371-1.195-1.65-0.73-1.473-0.729-1.211-0.394h-1.839l-1.197 0.394-2.262 1.123-1.036 0.745-1.080 0.787-1.182 1.081-1.196 1.183-1.97 2.202-2.348 3.121-1.838 3.211-1.855 2.582-1.794 2.991-2.523 5.324-2.86 5.53-0.336 0.19h-0.467l-1.168-0.862-0.67-1.459-1.109-1.795-1.94-5.398-2.917-7.644-3.765-9.178-2.816-4.595-2.961-4.785-3.502-5.384-3.721-5.282-1.911-2.377-2.32-2.597-5.312-5.253 0.468-0.467 0.73-0.744 2.64-1.591 11.060-5.325 4.829-2.728 4.596-2.655 4.567-3.326 4.055-3.459 1.97-1.531 1.473-1.795 1.518-2.072 1.269-2.26 0.67-1.853 0.847-2.276 0.336-1.926 0.392-2.262-0.392-1.517v-1.532l-0.336-1.591-0.847-1.474-0.336-1.138-0.729-1.386-2.014-2.729-1.853-2.202-1.43-1.648-1.211-1.212-3.049-2.246-3.457-1.955-3.691-1.855-3.924-1.793-4.421-1.722-2.348-0.745-2.115-0.583-5.092-1.212-5.297-1.124-5.298-1.137-5.762-0.934-5.966-0.263-6.113-0.73h-18.937l-6.843 0.396-6.362 0.597-6.843 0.934-6.813 0.73-7.177 1.006-6.93 1.736-6.768 1.328-6.741 1.926-6.917 2.465-6.768 2.058-3.547 1.181-3.194 1.153-2.014 0.788-1.97 0.394h-5.631l-6.507 0.483-3.298 0.335-4.245 0.467-2.728-2.465-3.705-2.334-5.033-2.466-5.559-3.063-3.384-1.664-3.531-1.313-7.82-3.21-4.231-1.063-4.435-1.197-6.185-1.197-7.936-0.656-4.261-0.467-4.961-0.204h-20.264l-11.453 0.204-11.089 1.124-5.63 0.803-10.738 1.591-5.296 1.063-4.917 1.605-4.902 1.124-4.435 1.795-4.187 1.664-3.896 1.868-3.384 2.071-3.385 2.465-1.138 1.182-1.503 1.458-1.152 1.284-1.022 1.459-0.948 1.459-0.744 1.459-1.051 3.121-0.38 1.606-0.467 1.795v1.663l0.467 1.853v1.882l0.38 1.853v3.735l0.175 1.999 0.875 2.246 0.744 2.277 1.342 2.713 0.981 1.065 0.802 1.211 2.115 2.582 1.663 1.328 1.576 0.933 1.459 1.197 2.334 0.729 1.837 1.138 2.321 1.196 2.64 0.788 2.655 0.819 3.049 0.657 6.376 0.86 3.72 0.277 0.977 0.336h0.204l0.481 0.394v0.452l-0.685 0.933-1.984 0.933-4.96 4.333-3.327 2.655-3.852 3.399-3.88 3.778-4.055 4.858-4.639 5.456-1.737 2.933-2.321 3.064-1.969 3.529-1.781 3.854-2.407 3.661-1.576 4.186-1.869 4.187-1.868 4.669-1.371 4.449-1.269 5.53-0.394 0.19h-0.394l-0.204 0.394h-0.468l-0.788-0.394-0.393-0.19-0.556-0.933-0.204-1.138-0.38-1.006-0.714-1.649-2.291-4.072-1.168-2.464-1.867-2.116-4.172-5.456-2.304-2.538-2.715-2.451-2.538-2.32-2.758-1.811-3.048-1.925-2.918-1.137-3.458-0.862-3.385-0.321h-0.803l-0.773 0.321-0.598 1.342-1.021 0.658-1.298 3.196-0.803 1.735-0.875 2.466-0.715 2.582-0.394 2.523-1.080 5.792-0.394 3.399v11.176l0.394 8.301 0.671 4.26 0.802 4.391 0.715 4.728 1.283 4.391 1.43 5.062 1.488 4.917 1.97 5.061 1.853 4.859 2.567 4.917 2.422 5.311 2.918 4.989 3.428 5.398 3.516 4.851 3.647 5.383 3.049 3.728 3.896 4.327 4.114 4.326 1.925 2.065 2.321 2.326 6.813 5.923 5.631 5.055 4.261 3.122 1.517 1.138-0.846 2.589-0.67 3.399-0.468 1.86v7.645l0.817 2.998 0.832 3.195 1.065 3.32 1.459 3.72 1.926 3.866 2.728 3.867v2.721l0.262 2.532 0.395 3.458 1.182 3.852 1.065 4.187 0.86 1.94 0.993 1.788 1.27 1.999 1.37 1.467v9.577l0.818 4.931 0.802 5.719 1.445 6.85 1.983 7.113 1.459 3.932 1.459 4.259 1.605 3.99 1.897 4.253 1.955 4.661 2.247 4.385 2.51 4.653 3.18 4.669 1.459 2.654 1.575 2.196 3.414 4.924 3.472 4.917 3.998 5.054 4.26 4.938 4.625 4.844 4.829 4.997 5.835 5.384 3.721 3.26 4.508 3.531 4.581 3.114 4.961 2.998 4.755 2.655 5.37 2.202 5.69 2.735 5.661 1.853 5.675 1.926 6.113 1.925 6.099 1.466 6.434 1.203 6.493 1.057 12.838 1.745 6.856 0.386h20.207l6.741-0.852 6.768-0.809 6.917-0.73 6.405-1.531 6.768-1.459 6.347-1.657 6.96-1.868 6.375-2.262 6.099-2.597 6.505-2.735 5.952-2.991 5.763-3.312 5.647-3.67 4.903-3.39 2.246-1.927 2.378-1.401 4.523-3.858 3.822-3.728 3.793-3.859 3.721-4.26 3.047-4.122 3.62-4.26 2.551-4.581 2.57-4.064 2.728-4.727 2.246-4.122 3.822-8.717 1.867-4.523 1.459-4.187 1.459-4.522 1.313-4.261 0.934-3.662 1.181-4.326 2.071-7.711 1.328-6.726 0.86-6.514 0.731-5.252 1.181-7.981 0.264-1.277 0.933-1.459 2.523-4.129 1.605-2.778 1.445-2.94 1.838-3.122 1.619-3.734 1.037-3.852 1.138-4.187 0.875-4.319 0.394-2.131 0.335-2.596v-2.262l-0.335-2.269v-2.801l-0.67-2.713-1.197-5.26-1.386-2.663-1.006-2.99v-0.73l0.468-0.933 1.386-2.196 5.967-8.856 4.727-6.645 2.245-4.458 3.050-4.85 2.641-5.332 3.062-5.712 3.050-6.391 3.429-7.257 1.925-4.45 1.782-4.318 1.545-4.595 1.502-4.115 1.139-4.333 1.182-4.056 1.472-7.92 1.168-8.113 0.803-7.178 0-10.108z"  horiz-adv-x="1024" />

    
    <glyph glyph-name="pinglun4" unicode="&#58887;" d="M512.001 0.004c-32.743 0-64.664 2.955-95.699 8.094l-224.304-136.098v226.579c-116.947 82.111-191.998 208.018-191.998 349.418 0 247.428 229.233 448.003 512.001 448.003 282.77 0 512.001-200.575 512.001-448.003 0-247.421-229.229-447.993-512.001-447.993zM512.001 831.996c-247.423 0-448.001-171.922-448.001-383.999 0-130.116 75.696-244.921 191.206-314.369l-2.019-148.433 150.639 90.546c34.703-7.387 70.804-11.743 108.174-11.743 247.426 0 448.001 171.922 448.001 383.999s-200.573 383.999-447.999 383.999zM736.001 479.999h-448.001c-17.672 0-32 14.326-32 31.998s14.328 32.002 32 32.002h448.001c17.672 0 32.002-14.33 32.002-32.002s-14.33-31.998-32.002-31.998zM352.001 351.995h320.001c17.672 0 32-14.32 32-31.998 0-17.668-14.328-31.992-32-31.992h-320.001c-17.674 0-32 14.324-32 31.992-0 17.678 14.326 31.998 32 31.998z"  horiz-adv-x="1025" />

    
    <glyph glyph-name="yuedureading19" unicode="&#58894;" d="M860.598617-126.400915l141.300989 37.845018c25.585364 6.880912 40.84936 32.999305 33.823076 59.359983L797.458977 859.895496c-6.929369 25.924564-33.677705 41.285474-58.923869 34.501476l-141.300989-37.845018c-25.633821-6.880912-40.84936-32.999305-33.823076-59.359983l238.215248-889.091409C808.604117-117.824003 835.303995-133.136456 860.598617-126.400915zM194.264631-124.801829C220.770681-124.801829 242.285647-103.480693 242.285647-76.199329L242.285647 844.243843c0 26.84525-21.854165 48.554044-48.021015 48.554044L48.021015 892.797886C21.514965 892.797886 0 871.525207 0 844.243843l0-920.443172c0-26.84525 21.854165-48.554044 48.021015-48.554044L194.264631-124.753372zM485.007407-124.801829c26.50605 0 48.021015 21.27268 48.021015 48.554044L533.028423 844.243843c0 26.84525-21.854165 48.554044-48.021015 48.554044L338.763791 892.797886C312.257741 892.797886 290.742776 871.525207 290.742776 844.243843l0-920.443172c0-26.84525 21.854165-48.554044 48.021015-48.554044L485.007407-124.753372z"  horiz-adv-x="1038" />

    
    <glyph glyph-name="shijian1" unicode="&#58947;" d="M512-128c-281.6 0-512 230.4-512 512 0 281.6 230.4 512 512 512s512-230.4 512-512C1024 102.4 793.6-128 512-128zM512 832C262.4 832 64 633.6 64 384c0-249.6 198.4-448 448-448s448 198.4 448 448C960 633.6 761.6 832 512 832zM729.6 352 512 352C492.8 352 480 371.2 480 384L480 716.8c0 19.2 12.8 32 32 32s32-12.8 32-32l0-294.4 185.6 0c19.2 0 32-12.8 32-32S748.8 352 729.6 352z"  horiz-adv-x="1024" />

    
    <glyph glyph-name="fenxiang" unicode="&#59045;" d="M365.604792 633.89956l127.792525 127.793548 0.152473-503.227196c0.004093-11.014868 8.934486-19.943215 19.949354-19.943215 0.002047 0 0.004093 0 0.00614 0 11.016915 0.004093 19.947308 8.937556 19.943215 19.954471l-0.152473 503.100306 127.675868-127.676891c3.89675-3.89675 8.999978-5.843078 14.106276-5.843078 5.104251 0 10.212596 1.948375 14.106276 5.842055 7.79043 7.79043 7.79043 20.422122 0 28.212552L527.85306 823.444521c-3.638877 3.870144-8.791224 6.300496-14.521738 6.300496-0.002047 0-0.004093 0-0.00614 0-0.00614 0-0.01228-0.001023-0.01842-0.001023-0.00614 0-0.01228 0.001023-0.01842 0.001023-5.291516 0-10.364045-2.101871-14.106276-5.842055L337.39224 662.113135c-7.789407-7.79043-7.789407-20.422122 0-28.212552C345.18267 626.10913 357.814362 626.10913 365.604792 633.89956zM782.507924 580.912765 642.713041 580.912765c-11.016915 0-19.949354-8.931416-19.949354-19.949354s8.93244-19.949354 19.949354-19.949354l139.794883 0c38.498826 0 69.821205-31.322379 69.821205-69.821205l0-425.443645c0-38.498826-31.322379-69.821205-69.821205-69.821205L246.009973-24.071999c-38.498826 0-69.821205 31.322379-69.821205 69.821205L176.188768 471.193875c0 38.498826 31.322379 69.821205 69.821205 69.821205l143.936203 0c11.017938 0 19.949354 8.931416 19.949354 19.949354s-8.931416 19.949354-19.949354 19.949354L246.009973 580.913788c-60.499909 0-109.718891-49.220005-109.718891-109.718891l0-425.443645c0-60.499909 49.220005-109.718891 109.718891-109.718891l536.49795 0c60.499909 0 109.718891 49.220005 109.718891 109.718891L892.226814 471.193875C892.227838 531.693784 843.007833 580.912765 782.507924 580.912765z"  horiz-adv-x="1024" />

    
    <glyph glyph-name="pinglun5" unicode="&#59053;" d="M850.879104 799.58409l-676.303067 0c-60.681034 0-110.049418-49.367361-110.049418-110.049418l0-446.200388c0-60.681034 49.367361-110.049418 110.049418-110.049418l90.307795 0L396.936381-35.129846c3.793396-4.838192 9.598612-7.66354 15.746636-7.66354s11.952216 2.825348 15.746636 7.66354l132.052548 168.414711 290.396903 0c60.681034 0 110.049418 49.367361 110.049418 110.049418L960.928522 689.534671C960.928522 750.215706 911.561162 799.58409 850.879104 799.58409zM920.91111 243.334283c0-38.614459-31.416524-70.030983-70.030983-70.030983L550.744419 173.3033c-6.147 0-11.952216-2.825348-15.745612-7.66354L412.683017 9.643893l-122.31579 155.995867c-3.792373 4.838192-9.597589 7.66354-15.745612 7.66354l-100.045577 0c-38.614459 0-70.030983 31.416524-70.030983 70.030983L104.545054 689.534671c0 38.614459 31.416524 70.030983 70.030983 70.030983l676.303067 0c38.614459 0 70.030983-31.416524 70.030983-70.030983L920.910087 243.334283zM272.621051 551.473269c-44.132126 0-80.035848-35.903721-80.035848-80.035848 0-44.132126 35.903721-80.036871 80.035848-80.036871s80.035848 35.904745 80.035848 80.036871C352.655875 515.569548 316.752154 551.473269 272.621051 551.473269zM272.621051 431.417963c-22.065552 0-40.017412 17.951861-40.017412 40.018436 0 22.065552 17.952884 40.017412 40.017412 40.017412 22.065552 0 40.017412-17.951861 40.017412-40.017412C312.638463 449.370847 294.686602 431.417963 272.621051 431.417963zM512.727571 551.473269c-44.132126 0-80.035848-35.903721-80.035848-80.035848 0-44.132126 35.903721-80.036871 80.035848-80.036871 44.132126 0 80.035848 35.904745 80.035848 80.036871C592.763418 515.569548 556.859697 551.473269 512.727571 551.473269zM512.727571 431.417963c-22.065552 0-40.017412 17.951861-40.017412 40.018436 0 22.065552 17.951861 40.017412 40.017412 40.017412 22.065552 0 40.017412-17.951861 40.017412-40.017412C552.746006 449.370847 534.793122 431.417963 512.727571 431.417963zM752.836137 551.473269c-44.131103 0-80.035848-35.903721-80.035848-80.035848 0-44.132126 35.904745-80.036871 80.035848-80.036871s80.035848 35.904745 80.035848 80.036871C832.871985 515.569548 796.96724 551.473269 752.836137 551.473269zM752.836137 431.417963c-22.066575 0-40.017412 17.951861-40.017412 40.018436 0 22.065552 17.951861 40.017412 40.017412 40.017412s40.017412-17.951861 40.017412-40.017412C792.853549 449.370847 774.902712 431.417963 752.836137 431.417963z"  horiz-adv-x="1024" />

    
    <glyph glyph-name="fenleigongnengleimu" unicode="&#59247;" d="M320 576C284.608 576 256 547.392 256 512s28.608-64 64-64 64 28.608 64 64S355.392 576 320 576zM320 256c-35.392 0-64-28.608-64-64s28.608-64 64-64 64 28.608 64 64S355.392 256 320 256zM640 576C604.608 576 576 547.392 576 512s28.608-64 64-64 64 28.608 64 64S675.392 576 640 576zM480 832C214.848 832 0 617.152 0 352S214.848-128 480-128 960 86.848 960 352 745.152 832 480 832zM320 64c-70.656 0-128 57.344-128 128s57.344 128 128 128 128-57.344 128-128S390.656 64 320 64zM320 384C249.344 384 192 441.344 192 512s57.344 128 128 128 128-57.344 128-128S390.656 384 320 384zM640 64c-70.656 0-128 57.344-128 128s57.344 128 128 128 128-57.344 128-128S710.656 64 640 64zM640 384C569.344 384 512 441.344 512 512s57.344 128 128 128 128-57.344 128-128S710.656 384 640 384zM640 256c-35.392 0-64-28.608-64-64s28.608-64 64-64 64 28.608 64 64S675.392 256 640 256z"  horiz-adv-x="1024" />

    
    <glyph glyph-name="leimupinleifenleileibie2" unicode="&#59384;" d="M320 832 192 832C121.6 832 64 774.4 64 704l0-128c0-70.4 57.6-128 128-128l128 0c70.4 0 128 57.6 128 128L448 704C448 774.4 390.4 832 320 832zM768 832l-128 0C569.6 832 512 774.4 512 704l0-128c0-70.4 57.6-128 128-128l128 0c70.4 0 128 57.6 128 128L896 704C896 774.4 838.4 832 768 832zM320 384 192 384c-70.4 0-128-57.6-128-128l0-128c0-70.4 57.6-128 128-128l128 0c70.4 0 128 57.6 128 128l0 128C448 326.4 390.4 384 320 384zM768 384l-128 0c-70.4 0-128-57.6-128-128l0-128c0-70.4 57.6-128 128-128l128 0c70.4 0 128 57.6 128 128l0 128C896 326.4 838.4 384 768 384z"  horiz-adv-x="1024" />

    
    <glyph glyph-name="leimupinleifenleileibie" unicode="&#59385;" d="M320 384 192 384c-70.4 0-128-57.6-128-128l0-128c0-70.4 57.6-128 128-128l128 0c70.4 0 128 57.6 128 128l0 128C448 326.4 390.4 384 320 384zM384 128c0-35.2-28.8-64-64-64L192 64c-35.2 0-64 28.8-64 64l0 128c0 35.2 28.8 64 64 64l128 0c35.2 0 64-28.8 64-64L384 128zM768 832l-128 0C569.6 832 512 774.4 512 704l0-128c0-70.4 57.6-128 128-128l128 0c70.4 0 128 57.6 128 128L896 704C896 774.4 838.4 832 768 832zM832 576c0-35.2-28.8-64-64-64l-128 0C604.8 512 576 540.8 576 576L576 704c0 35.2 28.8 64 64 64l128 0c35.2 0 64-28.8 64-64L832 576zM768 384l-128 0c-70.4 0-128-57.6-128-128l0-128c0-70.4 57.6-128 128-128l128 0c70.4 0 128 57.6 128 128l0 128C896 326.4 838.4 384 768 384zM832 128c0-35.2-28.8-64-64-64l-128 0c-35.2 0-64 28.8-64 64l0 128c0 35.2 28.8 64 64 64l128 0c35.2 0 64-28.8 64-64L832 128zM320 832 192 832C121.6 832 64 774.4 64 704l0-128c0-70.4 57.6-128 128-128l128 0c70.4 0 128 57.6 128 128L448 704C448 774.4 390.4 832 320 832zM384 576c0-35.2-28.8-64-64-64L192 512C156.8 512 128 540.8 128 576L128 704c0 35.2 28.8 64 64 64l128 0c35.2 0 64-28.8 64-64L384 576z"  horiz-adv-x="1024" />

    
    <glyph glyph-name="fenxiang1" unicode="&#58959;" d="M902.9 97.9c0-33.4-27-60.4-60.4-60.4L177.9 37.5c-33.4 0-60.4 27.1-60.4 60.4L117.5 641.7c0 33.4 27.1 60.4 60.4 60.4l426.7 0 0 61.4L177.9 763.5c-66.7 0-120.8-54.1-120.8-120.8l0-543.8c0-66.7 54.1-120.8 120.8-120.8l664.6 0c66.7 0 120.8 54.1 120.8 120.8l0 303-60.4 0L902.9 97.9zM842.5 763.5 725.4 763.5l0-61.4 117.1 0c2 0 3.9-0.4 5.9-0.6L337.9 195.8l42.5-42.9L898 665.6c3.2-7.3 5-15.4 5-23.9l0-119 60.4 0L963.4 642.6C963.4 709.4 909.3 763.5 842.5 763.5z"  horiz-adv-x="1024" />

    
    <glyph glyph-name="sousuo" unicode="&#58936;" d="M947.451068-21.697929 703.114201 222.630752c59.484789 64.914452 96.082312 151.139256 96.082312 246.12663 0 201.505363-163.355485 364.851639-364.851639 364.851639S69.491189 670.262746 69.491189 468.757382s163.356508-364.852662 364.852662-364.852662c87.73418 0 168.225399 31.017434 231.154637 82.627882l245.101277-245.083881c9.722432-9.729595 25.840528-9.347902 36.020378 0.823761C956.799994-47.546643 957.1735-31.421384 947.451068-21.697929z"  horiz-adv-x="1024" />

    
    <glyph glyph-name="xiazai5" unicode="&#58885;" d="M993.924741-44.790519l-172.86637 172.86637C888.452741 207.435852 929.185185 310.139259 929.185185 422.418963c0 251.354074-203.757037 455.111111-455.111111 455.111111s-455.111111-203.757037-455.111111-455.111111 203.757037-455.111111 455.111111-455.111111c111.767704 0 214.072889 40.353185 293.281185 107.216593l172.942222-172.942222c14.810074-14.810074 38.817185-14.810074 53.627259 0C1008.734815-83.607704 1008.734815-59.600593 993.924741-44.790519zM474.074074 43.159704c-209.464889 0-379.259259 169.79437-379.259259 379.259259s169.79437 379.259259 379.259259 379.259259 379.259259-169.79437 379.259259-379.259259S683.538963 43.159704 474.074074 43.159704z"  horiz-adv-x="1024" />

    
    <glyph glyph-name="ai-article" unicode="&#58888;" d="M320 32v864h480v-224h224v-640h-704zM928 576h-512v-32h512v32zM928 448h-512v-32h512v32zM928 320h-512v-32h512v32zM928 192h-512v-32h512v32zM832 896h19.2l172.8-160v-32h-192v192zM288 0h416v-128h-704v864h288v-320h-192v-32h192v-96h-192v-32h192v-96h-192v-32h192v-96h-192v-32h192z"  horiz-adv-x="1024" />

    
    <glyph glyph-name="icon4" unicode="&#58906;" d="M686.184111 717.827041c-73.571622 0-137.337925-38.749536-174.123736-96.429213-36.886095 57.679677-100.647281 96.429213-174.122713 96.429213-114.675786 0-207.668737-92.897783-207.668737-207.573569 0-29.623691 4.611018-57.679677 15.790638-83.184561 77.006861-174.911682 208.065779-323.133491 366.000811-427.51277 157.839865 104.379279 288.899806 252.601088 365.976252 427.51277 11.18576 25.504884 15.69547 53.56087 15.69547 83.184561C893.732098 624.929258 800.858874 717.827041 686.184111 717.827041z"  horiz-adv-x="1024" />

    
    <glyph glyph-name="icon" unicode="&#58962;" d="M762.164596 754.887099c-14.305821 9.648754-33.714869 5.897314-43.36874-8.393157-9.658987-14.295588-5.897314-33.709753 8.393157-43.36874 106.3604-71.862701 169.864736-191.282534 169.864736-319.445496 0-212.409714-172.807764-385.217479-385.222595-385.217479-212.409714 0-385.217479 172.807764-385.217479 385.217479 0 128.169101 63.49922 247.587911 169.859619 319.445496 14.295588 9.658987 18.057261 29.073152 8.398274 43.36874-9.648754 14.290471-29.068036 18.041912-43.363623 8.393157C137.924279 671.398616 64.144926 532.624992 64.144926 383.679705c0-246.856247 200.828958-447.685205 447.685205-447.685205s447.690322 200.828958 447.690322 447.685205C959.521476 532.624992 885.73803 671.393499 762.164596 754.887099zM400.357294 831.364911c-17.248849 0-31.234375-13.985526-31.234375-31.234375l0-30.476105c0-17.248849 13.985526-31.234375 31.234375-31.234375 17.248849 0 31.234375 13.985526 31.234375 31.234375L431.591669 800.131559C431.590646 817.380408 417.60512 831.364911 400.357294 831.364911zM623.310132 831.364911c-17.248849 0-31.234375-13.985526-31.234375-31.234375l0-30.476105c0-17.248849 13.985526-31.234375 31.234375-31.234375 17.248849 0 31.234375 13.985526 31.234375 31.234375L654.544507 800.131559C654.543484 817.380408 640.558981 831.364911 623.310132 831.364911zM425.353594 668.343023c11.209296-18.047028 41.97602-48.589648 86.157265-48.589648 43.958164 0 75.100442 30.3134 86.574774 48.223305 9.302877 14.528901 5.068436 33.846876-9.455349 43.149752-14.539134 9.307993-33.851992 5.063319-43.149752-9.455349-0.121773-0.198521-13.379729-19.449981-33.968649-19.449981-20.008706 0-32.443923 18.127869-33.277918 19.374256-9.17087 14.427594-28.28009 18.799158-42.829458 9.760295C420.747693 702.251298 416.249239 682.993698 425.353594 668.343023zM730.470757 290.85253 449.365474 290.85253c-17.248849 0-31.233352-13.985526-31.233352-31.234375 0-17.248849 13.985526-31.233352 31.233352-31.233352L730.470757 228.384803c17.248849 0 31.234375 13.985526 31.234375 31.233352C761.704109 276.867004 747.719606 290.85253 730.470757 290.85253zM314.018903 290.85253l-20.822235 0c-17.248849 0-31.234375-13.985526-31.234375-31.234375 0-17.248849 13.985526-31.233352 31.234375-31.233352l20.822235 0c17.248849 0 31.233352 13.985526 31.233352 31.233352C345.252255 276.867004 331.267752 290.85253 314.018903 290.85253zM730.470757 467.844593 449.365474 467.844593c-17.248849 0-31.233352-13.985526-31.233352-31.234375 0-17.248849 13.985526-31.234375 31.233352-31.234375L730.470757 405.375843c17.248849 0 31.234375 13.985526 31.234375 31.234375C761.704109 453.859068 747.719606 467.844593 730.470757 467.844593zM314.018903 467.844593l-20.822235 0c-17.248849 0-31.234375-13.985526-31.234375-31.234375 0-17.248849 13.985526-31.234375 31.234375-31.234375l20.822235 0c17.248849 0 31.233352 13.985526 31.233352 31.234375C345.252255 453.859068 331.267752 467.844593 314.018903 467.844593z"  horiz-adv-x="1024" />

    
    <glyph glyph-name="dianzan1" unicode="&#58966;" d="M884.875894 472.856747 646.970506 472.856747c92.185562 340.464205-63.516616 357.853247-63.516616 357.853247-65.993017 0-52.312436-52.182476-57.3031-60.881602 0-166.502152-176.849824-296.971645-176.849824-296.971645l0-472.171899c0-46.607504 63.516616-63.393819 88.433098-63.393819l357.452111 0c33.641191 0 61.036122 88.224344 61.036122 88.224344 88.434122 300.70569 88.434122 390.177444 88.434122 390.177444C944.657442 477.820805 884.875894 472.856747 884.875894 472.856747L884.875894 472.856747 884.875894 472.856747zM884.875894 472.856747M251.671415 472.700181 109.214912 472.700181c-29.420053 0-29.873378-28.89612-29.873378-28.89612l29.420053-476.202703c0-30.309306 30.361495-30.309306 30.361495-30.309306L262.420223-62.707948c25.686009 0 25.458835 20.049638 25.458835 20.049638L287.879058 436.588729C287.879058 473.162716 251.671415 472.700181 251.671415 472.700181L251.671415 472.700181 251.671415 472.700181zM251.671415 472.700181"  horiz-adv-x="1024" />

    
    <glyph glyph-name="fenlei1" unicode="&#58968;" d="M372.374696 802.84581q25.491887 0 43.61527-17.653053t18.123383-43.113585l0-244.979227q0-25.491887-18.123383-43.61527t-43.61527-18.123383l-244.979227 0q-25.491887 0-43.113585 18.123383t-17.653053 43.61527l0 244.979227q0 25.491887 17.653053 43.113585t43.113585 17.653053l244.979227 0zM372.374696 312.918711q25.491887 0 43.61527-17.653053t18.123383-43.113585l0-245.951242q0-25.491887-18.123383-43.113585t-43.61527-17.653053l-244.979227 0q-25.491887 0-43.113585 17.653053t-17.653053 43.113585l0 245.951242q0 25.491887 17.653053 43.113585t43.113585 17.653053l244.979227 0zM863.27381 312.918711q25.491887 0 43.113585-17.653053t17.653053-43.113585l0-245.951242q0-25.491887-17.653053-43.113585t-43.113585-17.653053l-244.979227 0q-25.491887 0-43.61527 17.653053t-18.123383 43.113585l0 245.951242q0 25.491887 18.123383 43.113585t43.61527 17.653053l244.979227 0zM999.481383 695.077526q19.597084-19.597084 19.597084-46.060986t-19.597084-45.088971l-182.268558-182.268558q-19.597084-19.597084-45.559301-19.597084t-45.559301 19.597084l-182.268558 182.268558q-18.625069 18.625069-18.625069 45.088971t18.625069 46.060986l182.268558 182.268558q19.597084 18.625069 45.559301 18.625069t45.559301-18.625069z"  horiz-adv-x="1024" />

    
    <glyph glyph-name="fenxiang3" unicode="&#58943;" d="M778.602987 242.274138c-43.735084 0-82.508155-20.923542-107.114576-53.234435l-283.026028 168.531368c3.213181 12.398378 5.100158 25.314549 5.100158 38.715767 0 3.89061-0.302899 7.686053-0.573051 11.494799l283.161105 170.612773c24.713868-28.935006 61.412698-47.344285 102.452393-47.344285 74.43427 0 134.771473 60.338227 134.771473 134.76738 0 74.42506-60.338227 134.763286-134.771473 134.763286-74.424037 0-134.759193-60.334133-134.759193-134.763286 0-14.767332 2.445702-28.916587 6.837732-42.222637L369.926214 478.01421c-27.26497 43.37795-75.391061 72.290443-130.376373 72.290443-85.053118 0-154.017816-68.959581-154.017816-154.017816s68.963675-154.012699 154.017816-154.012699c45.589314 0 86.426395 19.925818 114.624621 51.3976L648.347364 141.523503c-2.829442-10.872628-4.490268-22.23235-4.490268-34.012651 0-74.43427 60.34232-134.76738 134.76738-134.76738 74.429153 0 134.763286 60.33311 134.763286 134.76738C913.388786 181.940005 853.037257 242.274138 778.602987 242.274138L778.602987 242.274138 778.602987 242.274138zM778.602987 242.274138"  horiz-adv-x="1024" />

    
    <glyph glyph-name="chakantiezifenxiang" unicode="&#58976;" d="M929.344 34.752c0-14.784-12.992-26.88-28.864-26.88L106.624 7.872c-15.872 0-28.8 12.032-28.8 26.88L77.824 645.824c0 14.848 12.928 26.88 28.8 26.88l186.496 0L293.12 713.728 106.624 713.728c-38.528 0-69.824-30.4-69.824-67.904l0-611.072c0-37.504 31.296-67.904 69.824-67.904L900.48-33.152c38.656 0 69.888 30.4 69.888 67.904L970.368 245.12l-41.024 0L929.344 34.752zM449.664 171.52c-1.28 6.912-25.536 171.776 82.56 326.592 85.824 122.944 232 202.88 434.304 237.696l7.616-44.096c-189.824-32.64-326.016-106.176-404.8-218.624-97.536-139.136-74.752-299.456-74.56-300.992L449.664 171.52zM848.32 463.168 810.496 487.104 955.52 716.416 705.6 851.648 726.912 891.008 1019.008 732.992Z"  horiz-adv-x="1024" />

    
    <glyph glyph-name="fenxiang2" unicode="&#58902;" d="M731.853244 263.33992c-45.715181 0-87.117127-18.782785-116.91478-49.028647L446.790836 323.618794c7.356548 18.630313 11.400654 38.917358 11.400654 60.132542 0 24.076348-5.208629 46.958498-14.557554 67.578118l133.303029 96.266507c29.262464-26.948769 68.303642-43.433208 111.13003-43.433208 90.543156 0 164.196643 73.653487 164.196643 164.196643S778.61015 832.566272 688.066995 832.566272s-164.196643-73.66372-164.196643-164.207899c0-24.076348 5.208629-46.957475 14.556531-67.577095l-133.303029-96.266507c-29.262464 26.948769-68.303642 43.433208-111.129007 43.433208-90.543156 0-164.196643-73.653487-164.196643-164.196643s73.653487-164.196643 164.196643-164.196643c45.721321 0 87.129406 18.787902 116.928083 49.040926l168.140465-109.303428c-7.360641-18.634406-11.406794-38.928614-11.406794-60.149938 0-90.543156 73.653487-164.196643 164.196643-164.196643s164.196643 73.653487 164.196643 164.196643S822.396399 263.33992 731.853244 263.33992zM688.066995 766.88741c54.326303 0 98.517781-44.202735 98.517781-98.529037 0-54.326303-44.192501-98.517781-98.517781-98.517781-32.122605 0-60.699454 15.452947-78.695317 39.314401-0.341784 0.535189-0.695848 1.064238-1.072425 1.585101-0.379647 0.527003-0.775666 1.034563-1.180895 1.531889-11.070126 15.928784-17.569144 35.261085-17.569144 56.086389C589.549214 722.684676 633.740692 766.88741 688.066995 766.88741zM377.292995 331.20354c-0.254803-0.360204-0.508583-0.721431-0.751107-1.094938-0.231267-0.356111-0.446162-0.716314-0.662079-1.077541-17.692964-26.391067-47.791469-43.798529-81.884962-43.798529-54.326303 0-98.517781 44.192501-98.517781 98.517781 0 54.326303 44.192501 98.517781 98.517781 98.517781 54.326303 0 98.517781-44.192501 98.517781-98.517781C392.512628 364.444619 386.9264 346.421126 377.292995 331.20354zM731.853244 0.625496c-54.326303 0-98.517781 44.192501-98.517781 98.517781 0 19.455097 5.669116 37.609573 15.440667 52.900837 0.176009 0.254803 0.360204 0.500397 0.530073 0.762363 0.162706 0.25071 0.312108 0.506537 0.467651 0.760317 17.666358 26.555819 47.860031 44.094264 82.080413 44.094264 54.326303 0 98.517781-44.192501 98.517781-98.517781C830.371024 44.816974 786.178523 0.625496 731.853244 0.625496z"  horiz-adv-x="1024" />

    
    <glyph glyph-name="iconfontzhizuobiaozhun44" unicode="&#58923;" d="M860.854804 288.316777c0 24.680099-8.299013 43.487444-24.601304 54.404074 9.908674 5.698792 24.440645 33.911344 24.440645 58.789964-0.982374 41.122583-39.956014 71.616084-98.80533 71.616084l-155.952888-0.028653c26.676569 74.236771 21.645996 174.35091-11.838629 227.78489-20.146852 32.145118-44.418652 39.35738-61.187571 39.35738-56.613392 0-58.46046-55.685253-58.46046-74.636884 0-63.323211-8.976442-92.246961-20.138666-118.865201-8.833179-17.213034-63.049988-73.92364-118.394481-73.92364l-103.716176 0c-40.058344 0-69.105914-34.226522-69.054749-82.95841l26.930349-289.940508c3.235694-44.656059 24.711821-71.671343 67.810409-71.671343 0 0 21.460778-0.198521 37.525662-0.198521 8.206916 0 15.85306 0.055259 20.37505 0.198521 13.280468 0.427742 24.246217 9.118682 33.892925 16.414855 6.825452 5.157463 12.287861 9.603729 17.191544 9.603729 2.201132 0 14.786775-7.353478 30.216185-14.048971 15.743566-6.838755 40.742936-12.453636 64.617693-12.453636l217.004359 0c72.713069 0 107.603717 27.844162 107.646696 74.237795 0 13.707187-3.116991 21.828145-10.587126 32.459273 29.209252 7.15291 55.098899 25.90602 55.098899 58.250682 0 11.967566-5.52176 31.263028-13.093203 36.363186C832.035432 232.803439 860.88141 258.79337 860.854804 288.316777L860.854804 288.316777zM314.710147 57.426153c-12.990872-0.427742-59.611679 0-59.916625 0-16.683984 0-31.530111 16.1007-35.289738 37.730323l-26.930349 301.368792c0 22.511713 17.767666 47.249117 41.48074 47.249117l0-0.14224 101.861946-0.315178c1.753947 0 3.464915 0.200568 5.217838 0.285502l0-368.651175c-4.717442-3.391237-9.138124-6.639211-12.279674-9.005095C324.543096 62.698227 317.33595 57.739285 314.710147 57.426153L314.710147 57.426153zM790.419616 248.818181l-3.920286 0 0.356111-26.901697c3.133364-1.224898 14.836917-4.815679 14.861476-28.182876-0.024559-25.050536-32.249495-35.111682-59.391668-35.111682l0.084934 0-0.465604-25.648147c11.009751-2.536776 15.031345-12.367679 15.015995-28.126594 0-27.557636-21.968337-47.420009-78.955236-47.420009l-224.651526 0c-10.722202 0-32.580023 6.41306-45.147246 12.597923-11.873422 5.840008-30.80868 16.754592-37.423331 20.459984l0 357.99344c56.486502 15.987113 103.108333 65.745377 114.845655 88.714508 12.812817 30.407544 19.241226 62.152549 19.241226 131.859144 0 34.654264 12.465916 39.269375 25.719778 39.269375 11.729136 0 30.335912-13.19451 39.768749-28.241204 27.870768-44.457538 34.426067-140.240021-0.271176-211.968669l-5.987365-24.822338 199.143573 0.057305c33.900088-1.908466 67.986417-16.07307 67.986417-41.606607l-0.229221-8.007371c0.051165-0.313132-0.88823-22.143323-12.212136-31.747051-9.510608-8.063653-17.242709-8.349155-17.242709-8.349155l-0.211824-26.476001c0 0 11.491729-1.595334 17.480116-5.783727 9.04398-6.355755 13.125949-18.324344 12.669554-31.404244C830.884213 273.412322 805.833677 248.818181 790.419616 248.818181L790.419616 248.818181zM790.419616 248.818181"  horiz-adv-x="1024" />

    
    <glyph glyph-name="icon_article" unicode="&#58897;" d="M128-32.243c0-35.008 28.672-63.744 64-63.744h634.464c35.264 0 64.032 28.736 64.032 64.192v651.904l-235.712 243.904h-462.688c-35.616 0-64.096-28.512-64.096-63.712v-832.544zM784 576.013h-147.168c-17.76 0-32.128 14.304-32.128 31.872v208.128l238.336-240h-59.040z"  horiz-adv-x="1024" />

    
    <glyph glyph-name="sousuo5" unicode="&#58898;" d="M936.264796 41.660074 757.429759 220.480786c46.499034 63.167668 74.019831 141.124158 74.019831 225.397516 0 210.099089-170.944324 381.038296-381.054669 381.038296s-381.048529-170.939207-381.048529-381.038296c0-210.105229 170.939207-381.043413 381.048529-381.043413 84.275405 0 162.234965 27.519774 225.40468 74.018807l178.832991-178.818665c11.270694-11.264555 26.03598-16.902972 40.813544-16.902972 14.776542 0 29.54285 5.638417 40.818661 16.902972C958.801069-17.419486 958.801069 19.125849 936.264796 41.660074zM163.139567 445.878303c0 158.388357 128.86188 287.25126 287.256376 287.25126s287.261493-128.86188 287.261493-287.25126c0-158.390403-128.866996-287.252283-287.261493-287.252283S163.139567 287.487899 163.139567 445.878303z"  horiz-adv-x="1024" />

    
    <glyph glyph-name="fenxiang4" unicode="&#58925;" d="M967.097458-127.971557 654.217955-127.971557 654.217955-128 256.00768-128 256.00768-127.971557 56.902542-127.971557C25.472374-127.971557 0.01536-102.514543 0.01536-71.112818L0.01536 213.351537 0.01536 213.351537 0.01536 440.900266 0.01536 440.900266 0.01536 839.110543C0.01536 870.540711 25.472374 895.997724 56.902542 895.997724L398.225635 895.997724 398.225635 839.110543 56.902542 839.110543 56.902542 440.900266 56.902542 440.900266 56.902542 213.351537 56.902542 213.351537 56.902542-71.112818 256.00768-71.112818 341.338453-71.112818 568.887182-71.112818 654.217955-71.112818 967.097458-71.112818 967.097458 270.23872 1023.98464 270.23872 1023.98464-71.112818C1023.98464-102.514543 998.499183-127.971557 967.097458-127.971557ZM967.097458 807.680374 303.480034 144.091393 263.260795 184.310631 918.060707 839.110543 625.774365 839.110543 625.774365 895.997724 967.097458 895.997724C998.499183 895.997724 1023.98464 870.540711 1023.98464 839.110543L1023.98464 497.787448 967.097458 497.787448 967.097458 807.680374Z"  horiz-adv-x="1024" />

    
    <glyph glyph-name="fenlei01" unicode="&#58901;" d="M590.648756 790.002874c12.805654-0.048095 22.828938-8.630564 24.929786-20.971637 2.1295-12.505825-4.50664-24.179702-16.236799-28.278043-18.287505-6.388501-36.699853-12.432147-54.894238-19.077497-17.446347-6.372128-34.028001 4.199649-36.166711 22.189372-0.916882 7.710612 4.498454 18.883069 11.860119 22.8668 3.567245 1.930979 7.391341 3.466961 11.230786 4.803399 15.567557 5.420453 31.17707 10.721179 46.792723 16.003486C582.343603 788.951939 586.543252 790.431639 590.648756 790.002874zM474.326471 358.12161c-0.005117 76.392878 0.021489 152.785755-0.057305 229.178633-0.00614 5.760191-0.352017 11.58178-1.225921 17.269315-3.072989 19.980054-9.080819 38.968523-19.178805 56.648185-16.267499 28.481681-39.044248 50.095955-68.365041 64.496943-26.809599 13.167904-55.210439 18.256806-85.150332 15.308661-20.10285-1.979074-39.089273-7.326872-56.901964-16.541745-20.319791-10.511401-37.745672-24.663726-52.004421-42.768059-21.680788-27.526937-34.004465-58.766428-34.111912-93.625354-0.470721-153.296385-0.214894-306.59277-0.154519-459.890178 0.002047-5.421476 0.3776-10.894118 1.178849-16.252149 3.0208-20.180622 9.182127-39.312354 19.35686-57.117882 16.637935-29.120224 40.119743-50.987255 70.294996-65.299215 29.319769-13.905708 60.257385-18.266016 92.429109-13.140275 39.293935 6.259564 71.777767 24.811082 97.163947 55.19509 24.916483 29.822213 36.836977 64.553225 36.770462 103.497189C474.241536 209.428056 474.331587 283.775344 474.326471 358.12161zM208.409099 585.485921c0.145309 24.957415 8.847505 47.15702 24.920576 66.468854 15.610536 18.756179 35.302017 30.981618 58.96495 36.069497 34.152844 7.341199 65.129346-0.125867 92.154863-22.517853 21.969361-18.201547 34.402531-41.634236 37.889959-69.967538 0.565888-4.594645 0.814552-9.140171 0.815575-13.724583 0.020466-63.952544-0.059352-127.906112 0.147356-191.858656 0.017396-5.341658-1.5104-6.42841-6.564509-6.393617-33.765011 0.228197-67.533093 0.11768-101.301174 0.11768 0 0.01228 0 0.022513 0 0.034792-33.93795 0-67.8759 0.071631-101.812827-0.092098-4.228301-0.020466-5.449106 1.116427-5.439896 5.398964C208.317001 454.50989 208.029452 520.000464 208.409099 585.485921zM422.998455 132.773212c-0.399089-40.549531-18.815531-71.653947-53.631478-92.664469-18.605753-11.227716-39.098483-15.884782-60.619636-14.360056-23.12365 1.639337-43.933605 9.764388-61.824067 24.967648-21.738094 18.473747-34.336016 41.698704-37.820374 70.027913-0.564865 4.593622-0.812505 9.139148-0.813528 13.722536-0.020466 63.776536-0.014326 127.553071-0.013303 191.329607 0 6.751774 0.00307 6.753821 6.969739 6.753821 33.423227 0 66.846454 0 100.268658 0 0-0.01228 0-0.022513 0-0.034792 33.93488 0 67.86976-0.089028 101.802594 0.104377 4.689812 0.026606 5.967922-1.246387 5.956665-5.959735C423.118182 262.030088 423.632905 197.396021 422.998455 132.773212zM869.065813 622.669798c-6.123464 42.162262-38.723953 77.073376-80.069617 87.438445-15.247262 3.822049-30.730908 3.045359-48.621371 3.094478-8.609075-0.696872-19.642362 0.505513-30.733978-0.784876-22.571065-2.625804-42.527582-11.140735-59.077513-26.394137-28.381397-26.15673-40.308031-58.892295-34.746362-97.151667 6.16542-42.419112 38.871309-77.762061 80.614016-87.35044 25.651216-5.892197 51.827389-3.671623 77.772294-2.234901 23.056112 1.277086 43.282782 10.781554 60.106959 26.243711C862.727455 551.646208 874.624413 584.410426 869.065813 622.669798zM716.95544 549.530011c-30.632671 3.089361-53.451376 30.049387-51.219545 60.611449 1.864464 25.521257 21.883403 47.103808 47.290049 50.984185 8.974395 1.370207 8.965186 1.370207 8.961092-7.800663-0.00614-16.022928-0.001023-32.045857-0.001023-48.069809-0.011256 0-0.021489 0-0.031722 0 0-17.046235-0.12689-34.093493 0.093121-51.136657C722.0996 550.025291 720.582037 549.163667 716.95544 549.530011zM819.058886 602.200604c-1.456165-26.311249-21.462824-47.978734-46.922682-51.753711-9.244548-1.37123-9.249665-1.336438-9.249665 7.999185 0 15.852036 0 31.704073 0 47.558156 0.013303 0 0.026606 0 0.039909 0 0 17.045211 0.146333 34.093493-0.101307 51.136657-0.063445 4.305049 1.486864 5.296633 5.328355 4.857635C798.748305 658.505981 820.767807 633.104451 819.058886 602.200604zM864.423073 378.333954c-15.414061 43.748387-47.820122 68.370157-93.972255 72.482825-20.228717 1.802042-40.84936 1.570775-61.248969-0.533143-22.585391-2.329045-42.473347-11.217483-58.97416-26.53433-28.142967-26.125007-39.890522-58.732659-34.431184-96.789417 6.057973-42.23287 39.005362-77.375252 80.536244-87.575568 15.273868-3.750417 30.746258-2.88163 46.200228-3.024893 12.588713 0.127913 25.272593-0.966001 37.72316 1.304715 26.544563 4.843308 49.025577 17.069771 65.906036 38.467103C870.427834 306.888761 877.383246 341.553259 864.423073 378.333954zM716.914508 287.569764c-30.535457 3.157923-53.131081 29.317723-51.093678 60.129472 1.75804 26.578332 21.837354 47.63081 46.739511 51.401694 9.419534 1.426489 9.435906 1.320065 9.435906-8.293897-0.001023-15.682167-0.001023-31.364335-0.001023-47.047526-0.013303 0-0.026606 0-0.040932 0 0-17.216103-0.12996-34.434254 0.094144-51.64831C722.101647 287.960667 720.475614 287.201373 716.914508 287.569764zM819.080376 339.408409c-2.213411-26.428929-22.197558-47.410799-47.254234-50.974975-8.964162-1.27504-8.939603-1.363044-8.934486 7.850805 0.010233 15.85306 0.00307 31.705096 0.00307 47.559179 0.011256 0 0.022513 0 0.033769 0 0 17.216103 0.128937 34.43323-0.094144 51.647287-0.054235 4.140297 1.550309 4.913916 5.124717 4.554736C798.56411 396.967336 821.635571 369.90498 819.080376 339.408409zM869.125165 98.578412c-5.838985 41.823548-39.120996 77.509305-80.465636 87.666642-15.271822 3.751441-30.743188 2.923586-46.199205 3.038196-12.588713-0.132006-25.273616 0.981351-37.725206-1.286296-26.5374-4.834098-49.045019-16.980743-65.947991-38.394449-24.275893-30.753421-31.275307-65.392336-18.361183-102.187357 15.362896-43.771923 47.737234-68.436672 93.89653-72.581062 20.22667-1.816369 40.845267-1.539053 61.248969 0.5137 22.801309 2.293229 42.779316 11.378142 59.368132 26.832112C862.89016 28.217924 874.412588 60.709943 869.125165 98.578412zM716.930881 25.60133c-30.500665 3.124154-53.130058 29.303396-51.108005 60.116169 1.743714 26.584472 21.822005 47.634904 46.722114 51.414997 9.434883 1.432629 9.451256 1.320065 9.451256-8.275477-0.001023-15.682167-0.001023-31.364335-0.001023-47.047526-0.013303 0-0.026606 0-0.040932 0 0-17.216103-0.128937-34.434254 0.094144-51.64831C722.100624 26.031119 720.515522 25.233963 716.930881 25.60133zM819.14689 77.507514c-1.815345-25.490557-21.898753-47.175439-47.252187-51.018977-9.020444-1.36816-9.009188-1.36816-9.004071 7.757684 0.00921 15.852036 0.00307 31.705096 0.00307 47.558156 0.011256 0 0.021489 0 0.033769 0 0 17.216103 0.121773 34.434254-0.090051 51.64831-0.050142 4.031826 1.358951 4.992711 5.050016 4.637624C798.364565 135.160585 821.325509 108.074693 819.14689 77.507514z"  horiz-adv-x="1024" />

    
    <glyph glyph-name="biaoqian" unicode="&#59006;" d="M741.658197 825.381478C741.624512 825.381478 741.510198-74.8933 741.510198-74.8933 741.510198-71.484367 744.402062-64.328787 757.172574-59.341177 765.103987-56.243531 772.645392-57.032622 778.15685-59.73258 779.929322-60.60087 780.347896-60.945082 780.026811-60.581185L538.476226 213.176142C524.419874 229.106675 499.580126 229.106675 485.523774 213.176142L243.973189-60.581185C243.625181-60.975607 244.002266-60.664356 245.716407-59.815063 251.170364-57.112862 258.658982-56.274232 266.612622-59.317131 279.571439-64.274922 282.489802-71.49526 282.489802-74.8933L282.489802 825.270095C282.489802 825.33494 741.658197 825.381478 741.658197 825.381478ZM211.87128-74.8933C211.87128-127.036375 262.443093-146.384138 296.925623-107.303936L538.476226 166.45341 485.523774 166.45341 727.074377-107.303936C761.63909-146.477283 812.12872-126.758279 812.12872-74.8933L812.12872 825.270095C812.12872 864.447344 780.676537 896 741.658197 896L282.341803 896C243.451901 896 211.87128 864.254273 211.87128 825.270095L211.87128-74.8933Z"  horiz-adv-x="1024" />

    
    <glyph glyph-name="qq" unicode="&#58954;" d="M116.435 302.286c-33.54-78.964-38.985-154.297-12.059-168.37 18.572-9.696 47.686 12.382 74.936 52.909 10.791-44.157 37.493-84.137 75.633-116.21-40.004-14.768-66.135-38.886-66.135-66.232 0-44.954 70.709-81.302 157.978-81.302 78.716 0 143.907 29.538 155.94 68.371 3.232 0.049 15.663 0.049 18.796 0 12.083-38.784 77.324-68.371 155.989-68.371 87.267 0 157.978 36.398 157.978 81.302 0 27.297-26.105 51.464-66.135 66.232 38.089 32.123 64.889 72.053 75.631 116.21 27.251-40.527 56.29-62.605 74.887-52.909 26.95 14.073 21.631 89.456-12.032 168.37-26.355 62.058-62.11 107.754-89.457 117.848 0.398 3.929 0.596 7.958 0.596 11.935 0 23.968-6.661 46.146-18.049 64.196 0.199 1.393 0.199 2.834 0.199 4.227 0 11.038-2.636 21.381-7.114 30.332-6.909 161.309-111.93 289.402-281.866 289.402-170.036 0-275.106-128.093-281.943-289.402-4.525-9.001-7.135-19.343-7.135-30.332 0-1.393 0.099-2.835 0.15-4.227-11.288-18.05-17.951-40.178-17.951-64.196 0-3.978 0.15-7.955 0.498-11.935-27.151-10.094-63.028-55.841-89.333-117.848z"  horiz-adv-x="1024" />

    
    <glyph glyph-name="linedesign-04" unicode="&#58990;" d="M510.2592 819.2a432.6144 432.6144 0 0 1-288-109.6448 38.3744 38.3744 0 1 1 51.0464-57.3696A355.84 355.84 0 0 0 510.2592 742.4c196.9408 0 357.1968-160.768 357.1968-358.4s-160.256-358.4-357.1968-358.4S153.0624 186.368 153.0624 384c0 40.9856 6.8352 81.152 20.3008 119.424a38.4256 38.4256 0 0 1-72.448 25.4976A435.5072 435.5072 0 0 1 76.2624 384c0-239.9744 194.688-435.2 433.9968-435.2s433.9968 195.2256 433.9968 435.2S749.5424 819.2 510.2592 819.2zM510.2592 697.5232a38.4 38.4 0 0 1-38.4-38.4V384a38.4 38.4 0 0 1 38.4-38.4H782.592a38.4 38.4 0 1 1 0 76.8h-233.9584V659.1232a38.4 38.4 0 0 1-38.3744 38.4z"  horiz-adv-x="1024" />

    
    <glyph glyph-name="yuedu1" unicode="&#58889;" d="M823.109604 674.461932H575.492153c-10.157966 0-19.4272-3.062441-27.540468-7.899275v-542.603932h-27.512822V666.563681c-8.113267 4.836834-17.382501 7.899275-27.540468 7.899275H245.280945c-30.412466 0-55.025645-24.613179-55.025646-55.025645v-467.883853c0-30.412466 24.613179-55.025645 55.025646-55.025645h247.61745c0.269282 0 0.539588 0.05529 0.805798 0.05529 14.618011-0.3215 26.439791-12.144304 26.762315-26.762315v-28.319644h27.512822v15.262035h0.267234v12.38594c0 14.856576 11.87707 26.948662 26.654807 27.43296 0.215016 0 0.401363-0.05529 0.591806-0.05529h247.617451c30.412466 0 55.025645 24.613179 55.025645 55.025645V619.436287c0 30.412466-24.613179 55.025645-55.026669 55.025645zM795.596781 701.975779H547.97933c-10.157966 0-19.4272-3.062441-27.540467-7.899276v-542.603932h-27.512823V694.076503c-8.113267 4.836834-17.382501 7.899275-27.540467 7.899276H217.768122c-30.412466 0-55.025645-24.613179-55.025645-55.025645v-467.883853c0-30.412466 24.613179-55.025645 55.025645-55.025646h247.617451c0.269282 0 0.539588 0.05529 0.805798 0.05529 14.618011-0.3215 26.439791-12.144304 26.762314-26.762314v-28.319645h27.512823v15.261011h0.267234v12.385941c0 14.856576 11.87707 26.948662 26.654806 27.432959 0.215016 0 0.401363-0.05529 0.591806-0.055289h247.617451c30.412466 0 55.025645 24.613179 55.025645 55.025645v467.884877c0 30.41349-24.613179 55.026669-55.026669 55.026669zM266.429105 615.779788a52.599037 24.752428 34.485 1 1 86.712084 59.562146 52.599037 24.752428 34.485 1 1-86.712084-59.562146ZM213.275796 529.219652a28.877662 16.50196 34.485 1 1 47.606237 32.700513 28.877662 16.50196 34.485 1 1-47.606237-32.700513Z"  horiz-adv-x="1024" />

    
    <glyph glyph-name="02" unicode="&#58895;" d="M192.283 896v-448.057h-192.283v-448.057c0-69.839 58.048-127.887 127.887-127.887h768.227c69.839 0 127.887 58.048 127.887 127.887v896.113h-831.717zM192.283-0.113c0-35.373-29.024-63.49-64.397-63.49s-63.49 28.117-63.49 63.49v384.567h127.887v-384.567zM959.603 447.943v-448.057c0-35.373-28.117-63.49-63.49-63.49h-655.759c9.070 19.047 15.419 41.722 15.419 63.49v831.717h703.83v-383.66zM863.461 736.368h-511.547v-256.68h511.547v256.68zM799.972 544.085h-383.66v127.887h383.66v-127.887zM351.915 384.453h511.932v-63.99h-511.932zM351.915 255.66h511.932v-63.99h-511.932zM351.915 127.773h511.932v-63.99h-511.932z"  horiz-adv-x="1024" />

    
    <glyph glyph-name="collection" unicode="&#59054;" d="M818.357 739.158c42.486-47.582 68.529-110.159 68.529-178.969 0-74.315-34.978-144.848-78.823-190.294-33.393-34.613-219.827-220.405-308.393-308.586-18.733-18.653-45.741-23.542-69.022-15.094l33.383-33.483c25.754-25.832 67.453-25.928 93.302-0.19 88.567 88.182 275 273.972 308.393 308.586 43.845 45.447 78.823 115.981 78.823 190.294-0.001 96.049-50.478 180.115-126.191 227.737zM236.12 665.966c-47.037-27.208-76.244-77.83-76.244-132.095 0-18.029 3.116-35.672 9.254-52.434 1.387-3.712 4.903-6.307 9.025-6.307 0.001 0 0.002 0 0.003 0 0.004-0 0.010-0 0.015-0 1.181 0 2.311 0.217 3.353 0.612 4.928 1.799 7.481 7.318 5.66 12.301-5.368 14.641-8.090 30.060-8.090 45.827 0 47.431 25.528 91.673 66.633 115.465 4.598 2.656 6.175 8.531 3.51 13.129-2.684 4.627-8.615 6.158-13.12 3.502zM675.435 793.996c-59.407 0-116.393-18.441-164.895-53.317-60.289 43.443-134.244 61.172-208.385 50.013-76.094-11.506-145.055-55.419-189.203-120.495-44.917-66.202-60.44-148.208-42.59-224.997 11.787-50.725 39.022-96.093 85.685-142.775 45.856-45.845 215.35-215.837 298.444-299.195 15.504-15.551 35.888-23.322 56.291-23.322 20.29 0 40.581 7.696 56.047 23.097 124.014 123.489 278.21 277.309 308.58 308.786 51.711 53.588 82.589 128.218 82.589 199.629 0.001 155.811-126.754 282.575-282.564 282.575zM856.040 330.469c-23.575-24.429-133.023-133.953-308.205-308.392-20.497-20.432-53.813-20.356-74.274 0.151-83.132 83.377-252.626 253.387-298.482 299.233-43.547 43.547-67.76 83.593-78.516 129.842-16.161 69.496-2.065 143.77 38.648 203.787 39.961 58.882 102.26 98.608 170.958 108.988 11.837 1.893 25.486 2.975 39.386 2.975 53.45-0 105.387-16.583 149.252-48.201 4.373-3.194 9.856-5.111 15.786-5.111 5.93 0 11.413 1.916 15.862 5.164 43.714 31.499 95.256 48.177 148.977 48.177 140.963 0 255.649-114.685 255.649-255.658 0.001-63.642-28.755-132.978-75.042-180.954z"  horiz-adv-x="1024" />

    
    <glyph glyph-name="chat" unicode="&#58917;" d="M886.016 616.256c15.744-0.576 31.232-3.52 46.016-9.344 39.456-16.038 69.195-48.88 80.669-89.397 1.699-3.659 4.259-18.059 4.835-32.779 0.896-75.264 0.896-150.528 0-225.792-0.627-17.996-4.504-34.92-11.059-50.437-14.668-35.862-48.528-66.007-90.171-76.964-3.543-1.566-18.593-4.166-34.248-4.185l-81.29 0.002-2.112-73.6-0.192-2.56c-0.739-4.669-2.464-8.832-4.959-12.42-2.924-4.875-11.179-9.896-20.608-9.896-1.39 0-2.754 0.109-4.084 0.319-4.54 0.858-8.67 2.798-12.131 5.544l-146.825 92.613c-56.192 0-112.384-0.64-168.576 0.064-18.961 0.614-36.765 4.918-52.93 12.211-34.295 14.944-62.922 47.424-73.944 87.22-1.576 2.953-4.594 18.904-4.715 35.542-0.36 30.11-0.604 69.747-0.604 109.442 0 39.695 0.244 79.332 0.73 118.912 0.518 8.704 3.078 23.104 8.134 36.928 15.103 39.944 47.279 70.397 87.38 82.836 4.716 2.22 20.204 5.164 35.948 5.74 148.224 1.856 296.512 1.856 444.736 0zM444.928 565.12c-10.445-0.027-20.439-1.923-29.677-5.371-24.566-9.325-43.769-29.942-51.21-55.563-1.187-2.7-3.050-12.624-3.127-22.972-0.914-72.894-2.706-148.094 0.174-223.166 0.512-8.384 2.048-16.576 4.928-24.448 11.961-31.839 41.828-54.231 77.022-54.986 57.762-0.758 116.002-0.054 174.242-0.054 5.307-0.208 10.203-1.799 14.388-4.42l117.068-74.044 1.536 53.568 0.192 2.496c1.553 11.931 11.129 21.207 23.071 22.282 37.665 1.846 75.553-1.226 113.313 0.246 8.384 0.512 16.576 2.048 24.448 4.928 31.787 12.116 54.139 41.954 55.056 77.128 0.944 74.616 2.736 149.816-0.144 224.824-0.567 10.2-2.805 19.725-6.447 28.521-7.9 20.81-27.911 39.729-52.843 47.462-2.787 1.34-13.307 3.462-24.313 3.545-144.494 1.815-291.054 0.023-437.678 0.023zM495.936 737.856c33.096-0.973 62.624-15.478 83.381-38.148 4.447-3.983 8.269-10.753 9.615-18.377-0.756 3.053-0.453 0.813-0.453-1.498 0-13.784-10.786-25.049-24.379-25.815-0.27-0.009-0.508-0.012-0.747-0.012-6.214 0-11.931 2.123-16.467 5.684-3.398 2.964-6.278 6.612-9.67 9.748-11.494 10.278-26.594 16.736-43.191 17.271-53.688 2.297-119.44 3.673-185.513 3.673-66.073 0-131.824-1.376-197.227-4.102-17.509-1.115-40.033-18.266-49.281-42.048-2.654-6.76-4.325-14.946-4.439-23.507-1.062-25.61-1.724-59.059-1.724-92.663 0-33.604 0.662-67.053 1.974-100.335 0.234-1.873 1.45-8.401 3.754-14.673 9.175-23.992 31.008-41.176 57.115-43.476 1.701-0.172 4.837-0.108 8.037-0.3 2.24-0.32 2.24-0.32 4.544-0.896 10.492-3.374 18.028-12.867 18.439-24.177l0.505-23.695 76.992 36.8c2.112 0.896 2.048 0.896 4.288 1.6 2.069 0.562 4.445 0.884 6.896 0.884 1.588 0 3.144-0.135 4.658-0.395 11.834-2.378 20.746-12.826 20.746-25.355 0-2.776-0.438-5.45-1.247-7.957-2.367-6.72-7.359-12.198-13.745-15.202-34.907-18.663-73.947-35.367-112.219-53.671-3.176-1.505-6.901-2.384-10.831-2.384-13.935 0-25.289 11.051-25.776 24.868l-0.961 41.196c-3.392 0.704-6.656 1.664-9.92 2.624-20.506 6.611-37.947 17.893-51.73 32.637-12.045 6.912-30.33 40.32-30.989 78.026-0.802 62.136-0.802 125.624 0.030 189.048 0.512 13.76 3.072 27.264 8.128 40.128 12.224 31.040 37.76 55.936 69.056 67.392 12.096 4.416 24.64 6.656 37.44 7.104 124.992 1.6 249.984 1.792 374.912 0zM501.376 405.12c21.212-0.018 38.4-17.218 38.4-38.432 0-21.225-17.207-38.432-38.432-38.432-0.011 0-0.023 0-0.034 0-21.21 0.018-38.398 17.218-38.398 38.432 0 21.225 17.207 38.432 38.432 38.432 0.011 0 0.023-0 0.034-0zM663.616 405.12c0-0 0-0 0-0 21.208 0 38.4-17.192 38.4-38.4 0-21.208-17.192-38.4-38.4-38.4-0 0-0 0-0 0-21.208 0-38.4 17.192-38.4 38.4 0 21.208 17.192 38.4 38.4 38.4zM825.92 405.12c21.212-0.018 38.4-17.218 38.4-38.432 0-21.225-17.207-38.432-38.432-38.432-0.011 0-0.023 0-0.034 0-21.21 0.018-38.398 17.218-38.398 38.432 0 21.225 17.207 38.432 38.432 38.432 0.011 0 0.023-0 0.034-0z"  horiz-adv-x="1024" />

    
    <glyph glyph-name="pinglun6" unicode="&#58899;" d="M159.863 657.606zM165.184 656.073zM167.088 655.965zM167.088 697.702zM156.71 694.138zM161.568 696.766zM159.863 478.218zM156.71 514.744c2.124 1.632 4.681 2.812 7.468 3.347-5.427-1.946-6.479-2.6-7.468-3.347zM165.184 476.683zM167.088 476.572zM167.088 518.309zM161.568 517.372zM161.568 337.979zM156.71 335.35zM167.088 338.915zM785.225 442.773h-413.686c-12.323 0-22.292 11.511-22.292 25.742 0 14.225 9.969 25.745 22.292 25.745h413.686c12.327 0 22.296-11.52 22.296-25.745 0.004-14.231-9.969-25.742-22.296-25.742zM785.225 234.425h-413.686c-12.323 0-22.292 11.507-22.292 25.742 0 14.225 9.969 25.741 22.292 25.741h413.686c12.327 0 22.296-11.516 22.296-25.741 0-14.235-9.969-25.742-22.296-25.742zM579.114-68.526c-0.001-0-0.002-0-0.003-0-5.089 0-9.786 1.678-13.568 4.51l-143.333 106.574h-239.101c-26.669 0-48.381 21.716-48.381 48.389v553.216c0 26.669 21.713 48.39 48.381 48.39h790.551c26.669 0 48.386-21.721 48.386-48.39v-553.216c0-26.673-21.716-48.389-48.386-48.389h-258.718l-120.949-105.508c-3.955-3.464-9.169-5.576-14.877-5.576-0.001 0-0.002 0-0.003 0zM183.109 647.255c-1.701 0-3.092-1.396-3.092-3.092v-553.216c0-1.705 1.391-3.096 3.092-3.096h246.601c4.866 0 9.595-1.573 13.513-4.467l134.766-100.199 113.578 99.090c3.958 3.463 9.174 5.576 14.884 5.576l267.209-0c1.705 0 3.097 1.396 3.097 3.096v553.216c0 1.705-1.395 3.092-3.097 3.092h-790.551zM147.484 261.648h-99.98c-24.525 0-44.494 20.192-44.494 45.001v480.592c0 24.813 19.968 45.005 44.494 45.005h670.664c24.53 0 44.477-20.192 44.477-45.005v-117.337h-45.289v117.337l-669.852-0.288 0.798-480.304 99.181 0.288v-45.289h0.001zM147.484 261.648z"  horiz-adv-x="1024" />

    
    <glyph glyph-name="wenzhang3" unicode="&#58884;" d="M788.551 603.105c-74.801 0-135.633 60.832-135.633 135.605l0 156.171-487.636 0c-45.595 0-82.548-36.982-82.548-82.549l0-856.719c0-45.567 36.955-82.493 82.548-82.493l693.46 0c45.571 0 82.523 36.926 82.523 82.493l0 647.493-152.714 0zM805.084 56.884l-586.199 0 0 55.301 586.199 0 0-55.301zM805.084 233.85l-586.199 0 0 55.301 586.199 0 0-55.301zM805.084 410.816l-586.199 0 0 55.301 586.199 0 0-55.301zM706.002 894.881l0-156.171c0-45.567 36.955-82.493 82.549-82.493l152.714 0-235.263 238.662z"  horiz-adv-x="1024" />

    
    <glyph glyph-name="wenzhang4" unicode="&#58900;" d="M356.573 127.79h-255.83v36.537h255.83v73.55h-255.83v36.535h255.83v72.435h-255.83v37.93h255.83v71.279h-255.83v36.536h255.83V712.683H27.631V-128h621.388l0.08 146.741-292.526 0.319V127.79zM795.203 896v-219.295h219.334L795.203 896zM760.02 894.645H393.15v-839.05h621.388V639.214l-254.516 0.16V894.644z m181.405-693.384H466.26v35.181h475.166v-35.181z m0 109.17H466.26v37.053h475.166v-37.054z m0 146.222v-36.535H466.26v36.535h475.166z"  horiz-adv-x="1024" />

    
    <glyph glyph-name="biaoqian1" unicode="&#58921;" d="M243.887 830.564L64 650.677V474.58l537.146-537.144L960 296.29 425.727 830.564zM425.727 781.844L935.641 271.93 960 296.291 425.727 830.563H243.888L64 650.676v-48.72l179.888 179.888zM217.884889 541.744555a97.44 97.44 0 1 1 137.798565 137.803375 97.44 97.44 0 1 1-137.798565-137.803375ZM250.368 647.068c32.431 32.432 81.924 36.96 119.429 14.111-3.96 6.502-8.487 12.747-14.109 18.368-38.053 38.055-99.747 38.055-137.8 0-38.053-38.05-38.053-99.747 0-137.8 5.621-5.622 11.867-10.147 18.369-14.108-22.847 37.503-18.32 87 14.111 119.429z"  horiz-adv-x="1024" />

    
    <glyph glyph-name="icon-test" unicode="&#58933;" d="M974.289 487.424c-21.318 28.951-54.086 45.521-90.019 45.521h-251.252v215.785c0 65.815-53.527 119.343-119.343 119.343-32.209 0-62.371-12.66-84.992-35.561-22.621-22.9-34.816-53.248-34.351-85.457 0.838-58.182-1.21-84.34-3.072-95.977-3.258-20.573-15.36-61.254-35.281-118.132h-182.924c-1.862 0-3.724-0.279-5.399-0.838 20.108-3.444 36.585-17.594 43.194-36.399h158.255c7.913 0 14.895 4.934 17.594 12.381 23.552 66.467 37.423 112.547 41.239 137.123 2.979 19.084 4.189 53.527 3.537 102.307-0.279 22.156 8.099 43.101 23.645 58.833 15.639 15.825 36.399 24.483 58.554 24.483 45.335 0 82.106-36.864 82.106-82.106v-234.403c0-10.24 8.378-18.618 18.618-18.618h269.871c23.924 0 45.801-11.078 60.044-30.348 14.15-19.27 18.246-43.473 11.078-66.281l-107.613-344.343c-10.705-34.351-31.744-63.767-60.695-84.992s-63.302-32.582-99.235-32.582h-476.998c-6.703-18.804-23.18-32.954-43.194-36.399 1.676-0.559 3.537-0.838 5.399-0.838h514.793c43.939 0 85.923 13.777 121.297 39.75s61.068 61.999 74.193 103.889l107.613 344.25c10.705 34.351 4.655 70.656-16.663 99.607zM210.851-62.836c2.048 5.865 3.165 12.102 3.165 18.618v521.309c0 6.516-1.117 12.753-3.165 18.618-6.703 18.804-23.18 32.954-43.194 36.399-3.072 0.559-6.237 0.838-9.402 0.838h-74.473c-30.813 0-55.855-25.041-55.855-55.855v-521.309c0-30.813 25.041-55.855 55.855-55.855h74.473c3.165 0 6.33 0.279 9.402 0.838 20.108 3.444 36.585 17.594 43.194 36.399zM65.164-44.218v521.309c0 10.24 8.378 18.618 18.618 18.618h74.473c10.24 0 18.618-8.378 18.618-18.618v-521.309c0-10.24-8.378-18.618-18.618-18.618h-74.473c-10.24 0-18.618 8.378-18.618 18.618z"  horiz-adv-x="1024" />

    
    <glyph glyph-name="dianzan2" unicode="&#58907;" d="M855.466667 533.333333H661.333333V731.733333C661.333333 787.2 616.533333 832 561.066667 832 512 832 469.333333 800 460.8 753.066667 435.2 614.4 354.133333 490.666667 256 490.666667H149.333333c-46.933333 0-85.333333-40.533333-85.333333-87.466667V42.666667c0-46.933333 38.4-85.333333 85.333333-85.333334h588.8c57.6 0 108.8 38.4 123.733334 93.866667l96 347.733333c19.2 68.266667-32 134.4-102.4 134.4zM256 441.6V0H149.333333c-23.466667 0-42.666667 19.2-42.666666 42.666667V403.2C106.666667 426.666667 125.866667 448 149.333333 448h106.666667v-6.4z m661.333333-29.866667L821.333333 64c-10.666667-38.4-44.8-64-83.2-64H298.666667V452.266667c81.066667 23.466667 170.666667 117.333333 204.8 290.133333 4.266667 27.733333 27.733333 46.933333 57.6 46.933333C593.066667 789.333333 618.666667 763.733333 618.666667 731.733333v-196.266666c0-23.466667 21.333333-44.8 44.8-44.8h192c19.2 0 38.4-8.533333 51.2-25.6 12.8-14.933333 14.933333-34.133333 10.666666-53.333334z"  horiz-adv-x="1024" />

    
    <glyph glyph-name="icon-test1" unicode="&#58922;" d="M512 4.1c-108.9 0-447.3 277.5-447.3 522.2 0 131 106.6 237.6 237.6 237.6 94.9 0 174.8-50.2 209.7-76.1 34.9 25.9 114.8 76.1 209.7 76.1 131 0 237.6-106.6 237.6-237.6 0-244.7-338.4-522.2-447.3-522.2zM302.3 708c-100.2 0-181.7-81.5-181.7-181.7 0-221 326.8-466.3 391.4-466.3s391.4 245.3 391.4 466.3c0 100.2-81.5 181.7-181.7 181.7-103.9 0-190.2-76-191.1-76.8-10.6-9.5-26.7-9.5-37.3 0-0.8 0.8-87.7 76.8-191 76.8z"  horiz-adv-x="1024" />

    
    <glyph glyph-name="sousuo1" unicode="&#58948;" d="M916.33 36.24L678.51 274.06A318.92 318.92 0 0 1 768 496c0 176.73-143.27 320-320 320S128 672.73 128 496s143.27-320 320-320a318.48 318.48 0 0 1 167.88 47.55l243.88-243.88a40 40 0 1 1 56.57 56.57zM192 496c0 141.38 114.62 256 256 256s256-114.62 256-256-114.62-256-256-256-256 114.62-256 256z"  horiz-adv-x="1024" />

    
    <glyph glyph-name="biaoqian2" unicode="&#59024;" d="M768 790.4h-512c-35.2 0-64-28.8-64-64v-713.6c-3.2-9.6 0-19.2 9.6-25.6 12.8-12.8 28.8-12.8 41.6 0l268.8 268.8 268.8-268.8c12.8-12.8 28.8-12.8 41.6 0 6.4 6.4 9.6 16 9.6 25.6v713.6c0 35.2-28.8 64-64 64zM768 83.2l-233.6 236.8c-6.4 6.4-12.8 9.6-22.4 9.6-6.4 0-16-3.2-22.4-9.6l-233.6-236.8v608c0 19.2 12.8 32 32 32h448c19.2 0 32-12.8 32-32v-608z"  horiz-adv-x="1024" />

    
    <glyph glyph-name="qq1" unicode="&#59002;" d="M960.1 384c0 247.4-200.5 447.9-447.9 447.9S64.3 631.4 64.3 384s200.5-447.9 447.9-447.9S960.1 136.7 960.1 384zM690.8 450.8c0 185.5-96.1 241.6-178.6 241.6s-180.5-55.3-180.5-241.6c0 0-62.6-140.2-62.6-207.5s56.5 32.7 56.5 32.7-1.8-67.2 56.5-113.8c0 0-70.8-28.4-47.3-42.3 23.5-13.9 170.6-2.4 170.6-2.4h10s142.1-9.1 169.1 0-16.4 38.7-44.4 44.7c56.6 50.4 56.6 113.8 56.6 113.8s55.9-101.8 55.9-34.4-61.8 209.2-61.8 209.2z"  horiz-adv-x="1024" />

    
    <glyph glyph-name="tag" unicode="&#59018;" d="M167 832v-896l345 210 345-210v896h-690zM807 25l-295 179.5-295-179.5v757h590v-757zM562 609h-100v50h100v-50z"  horiz-adv-x="1024" />

    
    <glyph glyph-name="pinglun7" unicode="&#59537;" d="M853.333 128c35.413 0 64 20.651 64 55.979v541.44c-0.036 35.307-28.667 63.915-63.979 63.915-0.008 0-0.015-0-0.023-0l-682.665 0c-35.413 0-64-28.587-64-63.915v-541.44c0-35.264 28.672-55.979 64-55.979h201.173l110.016-117.44c7.745-7.787 18.467-12.606 30.315-12.606 11.826 0 22.531 4.802 30.271 12.563l109.462 117.484h201.429zM634.304 170.667h-6.251l-115.797-129.963c-0.107-0.107-116.011 129.963-116.011 129.963h-225.579c-11.776 0-21.333 1.621-21.333 13.312v541.44c-0 0.013-0 0.028-0 0.043 0 11.711 9.494 21.205 21.205 21.205 0.045 0 0.090-0 0.135-0l682.66 0c11.776 0 21.333-9.536 21.333-21.248v-541.44c0-11.755-9.472-13.312-21.333-13.312h-219.029zM341.333 405.333c0 0 0 0 0 0 23.564 0 42.667 19.103 42.667 42.667 0 23.564-19.103 42.667-42.667 42.667-0 0-0 0-0 0-23.564-0-42.667-19.103-42.667-42.667 0-23.564 19.103-42.667 42.667-42.667zM512 405.333c0 0 0 0 0 0 23.564 0 42.667 19.103 42.667 42.667 0 23.564-19.103 42.667-42.667 42.667-0 0-0 0-0 0-23.564-0-42.667-19.103-42.667-42.667 0-23.564 19.103-42.667 42.667-42.667zM682.667 405.333c0 0 0 0 0 0 23.564 0 42.667 19.103 42.667 42.667 0 23.564-19.103 42.667-42.667 42.667-0 0-0 0-0 0-23.564-0-42.667-19.103-42.667-42.667 0-23.564 19.103-42.667 42.667-42.667z"  horiz-adv-x="1024" />

    
    <glyph glyph-name="yuedu2" unicode="&#58890;" d="M883.8-29.1H140.2c-24.8 0-44.9 20.1-44.9 44.9V635c0 24.8 20.1 44.9 44.9 44.9H179c8.3 0 15-6.7 15-15s-6.7-15-15-15h-38.7c-8.3 0-15-6.7-15-15v-619.2c0-8.3 6.7-15 15-15h743.6c8.3 0 15 6.7 15 15V635c0 8.3-6.7 15-15 15H512c-8.3 0-15 6.7-15 15s6.7 15 15 15h371.8c24.8 0 44.9-20.1 44.9-44.9v-619.2c0-24.8-20.1-45-44.9-45zM512-29.1c-8.3 0-15 6.7-15 15v679c0 8.3 6.7 15 15 15s15-6.7 15-15v-679.1c0-8.2-6.7-14.9-15-14.9zM512-29.4c-1.7 0-3.5 0.3-5.2 0.9L202.7 84.4c-19.5 7.3-34.3 30.1-34.3 53.1V760.2c0 13.6 5.4 25.2 14.8 31.7 8.5 5.9 19.4 7 29.8 3.1l304.2-116.2c7.7-2.9 11.6-11.6 8.6-19.3-2.9-7.7-11.6-11.6-19.3-8.6L202.6 767.1c-1.3 0.5-2 0.4-2.2 0.3-0.5-0.4-2-2.4-2-7.2v-622.7c0-11.2 7.8-22.4 14.7-25l304.1-112.8c7.8-2.9 11.7-11.5 8.8-19.2-2.2-6.1-7.9-9.9-14-9.9z"  horiz-adv-x="1024" />

    
    <glyph glyph-name="biaoqian3" unicode="&#59144;" d="M511.9 384.118m-448.487 0a448.487 448.487 0 1 1 896.974 0 448.487 448.487 0 1 1-896.974 0ZM287.656 538.285v-439.863c0-14.809 9.119-28.188 23.06-33.869a38.248 38.248 0 0 1 14.314-2.786c9.717 0 19.285 3.739 26.423 10.74L511.9 229.868l160.446-157.361c7.138-7.001 16.706-10.74 26.423-10.74 4.821 0 9.68 0.916 14.277 2.786 13.978 5.682 23.097 19.061 23.097 33.869V538.285H287.656zM287.656 566.316v-439.863c0-14.809 9.119-28.188 23.06-33.869a38.248 38.248 0 0 1 14.314-2.786c9.717 0 19.285 3.739 26.423 10.74L511.9 257.899l160.446-157.361c7.138-7.001 16.706-10.74 26.423-10.74 4.821 0 9.68 0.916 14.277 2.786 13.978 5.682 23.097 19.061 23.097 33.869V566.316H287.656zM736.143 538.285v28.03c0 15.473-16.744 28.03-37.374 28.03H325.03c-20.63 0-37.374-12.558-37.374-28.03v-28.03h448.487zM736.143 566.316v70.076c0 15.473-16.744 28.03-37.374 28.03H325.03c-20.63 0-37.374-12.558-37.374-28.03v-70.076h448.487z"  horiz-adv-x="1024" />

    
    <glyph glyph-name="aixin" unicode="&#58924;" d="M213.472 303.392a16 16 0 0 0-11.6 4.976L122.704 391.52c-73.808 73.824-73.808 194.384 0.288 268.496l73.088 73.104c74.128 74.112 194.688 74.096 268.784 0l42.784-45.728a16 16 0 0 0-23.376-21.872l-42.4 45.344c-61.28 61.264-161.568 61.232-223.152-0.384l-73.088-73.104c-61.632-61.632-61.632-161.904 0-223.536l79.456-83.44a16 16 0 0 0-11.616-27.008zM838.464 331.952a16.032 16.032 0 0 0-11.68 26.944l51.232 54.608c61.984 62 61.984 162.272 0.352 223.904l-73.104 73.104c-61.632 61.632-161.904 61.632-223.536 0L390.464 509.568c4.912-5.072 12.48-10.928 22.8-13.136 17.904-3.872 39.296 3.616 63.744 22.096l87.056 77.008a16 16 0 0 0 20.64 0.464c3.84-3.04 96.272-74.112 218.08 20.4a16 16 0 1 0 19.616-25.28c-116.336-90.24-213.904-47.024-246.336-27.664l-78.832-69.68c-33.424-25.328-63.856-34.688-91.36-28.496-34.24 7.664-49.872 36.864-50.512 38.112a16 16 0 0 0 2.576 18.448l200.896 210.992c74.384 74.384 194.96 74.4 269.056 0.288l73.104-73.104c74.096-74.112 74.096-194.672 0-268.784l-50.88-54.24a15.888 15.888 0 0 0-11.648-5.04zM335.04 116.704c-18.768 0-37.904 8.352-52.48 22.944-12.752 12.752-20.784 28.912-22.576 45.504-1.92 17.648 3.584 34.368 15.088 45.872l135.76 135.76c9.984 9.984 23.792 15.472 38.896 15.472 18.768 0 37.904-8.368 52.496-22.96 27.248-27.248 30.608-68.24 7.472-91.376l-135.76-135.76c-10-9.952-23.808-15.456-38.896-15.456z m114.688 233.584c-4.64 0-11.216-1.056-16.272-6.096l-135.76-135.76c-6.336-6.336-6.416-15.104-5.904-19.792 1.008-9.232 5.888-18.832 13.392-26.336 8.496-8.496 19.664-13.568 29.856-13.568 4.64 0 11.216 1.056 16.272 6.096l135.76 135.76c10.464 10.48 7.056 31.6-7.472 46.128-8.496 8.48-19.68 13.568-29.872 13.568zM252.752 191.008c-18.768 0-37.904 8.352-52.48 22.944-27.248 27.264-30.592 68.256-7.472 91.376l101.824 101.824c9.984 9.984 23.792 15.472 38.896 15.472 18.768 0 37.904-8.352 52.48-22.944 27.248-27.264 30.592-68.256 7.472-91.376l-101.824-101.824c-9.984-9.968-23.808-15.472-38.896-15.472z m80.768 199.632c-4.64 0-11.216-1.056-16.272-6.096l-101.824-101.824c-10.464-10.48-7.04-31.6 7.472-46.128 8.496-8.496 19.664-13.568 29.856-13.568 4.64 0 11.216 1.056 16.272 6.096l101.824 101.824c10.464 10.48 7.04 31.6-7.472 46.128-8.496 8.496-19.648 13.568-29.856 13.568zM408.608 35.664c-18.768 0-37.904 8.352-52.48 22.944-12.752 12.752-20.768 28.912-22.576 45.504-1.904 17.648 3.6 34.368 15.104 45.888l101.808 101.808c9.968 9.984 23.792 15.488 38.896 15.488 18.768 0 37.904-8.368 52.496-22.944 12.752-12.752 20.768-28.928 22.56-45.52 1.92-17.648-3.584-34.368-15.088-45.872l-101.824-101.824c-9.984-9.984-23.792-15.472-38.896-15.472z m80.752 199.632c-4.64 0-11.216-1.056-16.272-6.112l-101.808-101.824c-6.336-6.336-6.416-15.104-5.92-19.792 1.008-9.232 5.888-18.832 13.392-26.336 8.496-8.496 19.664-13.568 29.856-13.568 4.64 0 11.216 1.056 16.272 6.096l101.824 101.824c6.336 6.336 6.416 15.12 5.904 19.792-1.008 9.248-5.872 18.848-13.376 26.336-8.496 8.512-19.664 13.584-29.872 13.584zM775.712 88.752c-14.64 0-28.512 5.04-38.848 15.376a15.984 15.984 0 1 0 22.624 22.624c10.48-10.48 31.632-7.04 46.144 7.472s17.936 35.648 7.472 46.128a15.984 15.984 0 1 0 22.624 22.624c23.136-23.136 19.776-64.128-7.472-91.376-15.104-15.088-34.4-22.848-52.544-22.848zM851.824 164.864c-14.624 0-28.512 5.056-38.848 15.376l-117.824 117.824a15.984 15.984 0 1 0 22.624 22.624l117.824-117.824c10.464-10.464 31.584-7.024 46.128 7.472 7.504 7.504 12.384 17.104 13.392 26.336 0.512 4.672 0.416 13.456-5.904 19.792l-129.536 121.2a16 16 0 1 0 21.872 23.36l129.904-121.568c11.888-11.872 17.392-28.608 15.472-46.24-1.792-16.592-9.824-32.752-22.576-45.504-15.072-15.072-34.368-22.832-52.528-22.848zM711.456 428.72a15.968 15.968 0 0 0-10.944 4.32l-60.368 56.512a16.016 16.016 0 0 0 21.872 23.36l60.368-56.512a16.016 16.016 0 0 0-10.928-27.68zM700.784 13.568c-15.056 0-29.008 5.456-39.008 15.472l-117.824 117.824a15.984 15.984 0 1 0 22.624 22.624l117.824-117.824c6.336-6.336 15.168-6.384 19.776-5.904 9.248 1.008 18.848 5.888 26.336 13.376 14.528 14.528 17.936 35.648 7.472 46.128l-117.808 117.824a15.984 15.984 0 1 0 22.624 22.624l117.808-117.824c23.136-23.136 19.776-64.128-7.472-91.376-12.752-12.752-28.912-20.768-45.504-22.576a61.584 61.584 0 0 0-6.848-0.368zM489.008-39.088c-18.768 0-37.904 8.368-52.48 22.96-12.752 12.736-20.784 28.912-22.576 45.504-1.92 17.648 3.584 34.368 15.088 45.872l67.888 67.888c9.984 9.984 23.792 15.472 38.896 15.472 18.768 0 37.904-8.352 52.48-22.944 27.248-27.264 30.592-68.256 7.472-91.376l-67.872-67.888c-10-10-23.808-15.488-38.896-15.488z m46.8 165.68c-4.64 0-11.216-1.056-16.272-6.096l-67.888-67.888c-6.336-6.336-6.416-15.104-5.904-19.776 1.008-9.248 5.888-18.832 13.392-26.336 8.496-8.512 19.664-13.584 29.856-13.584 4.64 0 11.216 1.056 16.272 6.096l67.872 67.888c10.464 10.48 7.04 31.6-7.472 46.128-8.496 8.496-19.648 13.568-29.856 13.568z"  horiz-adv-x="1024" />

    
    <glyph glyph-name="weibo" unicode="&#59193;" d="M947.006925 397.659954c-49.704566 9.578484-25.887795 36.50179-25.887795 36.50179s48.669054 80.252163-9.578484 138.758579c-72.226947 72.485825-247.746194-9.319606-247.746194-9.319606-67.049388-20.710236-49.18681 9.578484-39.608326 61.354073 0 60.836317-20.710236 163.86974-199.336018 103.551179S93.486337 452.2832 93.486337 452.2832C-12.912499 309.90033 0.549154 199.618325 0.549154 199.618325c25.887795-243.086391 284.765741-310.653535 484.619515-325.668456 210.726648-16.568189 495.492389 72.744703 581.698745 256.548044s-70.414801 256.806923-120.378245 266.903163zM501.47798-57.447476c-209.432258-9.837362-378.479557 95.267084-378.479557 235.320053S292.045721 430.019697 501.47798 440.374815 880.734171 363.488065 880.734171 222.91734s-169.823933-270.786332-379.256191-280.364816zM459.539752 347.955388c-210.46777-25.887795-186.133243-222.376156-186.133243-222.376156a109.246493 109.246493 0 0 1 56.435392-94.49045 243.604147 243.604147 0 0 1 314.018949 56.69427c63.942853 83.099821 25.887795 284.765741-184.321098 260.172336z m-53.069978-277.25828c-39.349448-4.659803-70.932557 18.121456-70.932558 51.775589a75.333482 75.333482 0 0 0 67.567144 71.191435c45.044763 4.400925 74.556848-21.745747 74.556849-54.623246a77.663384 77.663384 0 0 0-71.191435-67.567144z m124.002536 105.88108a24.334527 24.334527 0 0 0-36.760669 3.365413 31.065354 31.065354 0 0 0 8.801851 40.126082 25.887795 25.887795 0 0 0 38.831691-3.365414 32.877499 32.877499 0 0 0-11.131751-40.126081z m517.755892 306.511488a34.171889 34.171889 0 0 1 34.171889 32.618621c25.887795 232.990152-189.498657 191.828558-189.498657 191.828558a34.689645 34.689645 0 0 1 0-69.379289c155.326768 34.171889 120.378245-120.637123 120.378245-120.637123a34.689645 34.689645 0 0 1 34.689645-34.430767zM1024.670309 887.715906a428.960757 428.960757 0 0 1-172.412712-1.553268c-1.553268 0-3.106535-1.812146-4.659803-2.071024a51.775589 51.775589 0 0 1 13.461653-99.150253 82.064309 82.064309 0 0 1 45.30364 10.872874 264.055505 264.055505 0 0 0 248.781707-123.225903 225.741569 225.741569 0 0 0 15.532676-166.976275 148.595941 148.595941 0 0 1-11.131751-49.704565 46.080274 46.080274 0 0 1 49.963443-45.303641c23.040137 0 42.455983 3.106535 48.151298 42.455983C1340.242525 727.729335 1157.733573 856.650552 1024.670309 887.715906z"  horiz-adv-x="1278" />

    
    <glyph glyph-name="icon-test2" unicode="&#58994;" d="M896 469.333333H516.266667c10.666667 55.466667 38.4 181.333333 38.4 224C554.666667 768 507.733333 768 480 768c-34.133333 0-61.866667-25.6-74.666667-70.4-19.2-113.066667-78.933333-200.533333-96-228.266667H298.666667v-42.666666h34.133333l40.533333 64c25.6 44.8 59.733333 115.2 74.666667 198.4 4.266667 14.933333 12.8 36.266667 32 36.266666C509.866667 725.333333 512 725.333333 512 693.333333c0-34.133333-21.333333-142.933333-36.266667-209.066666l-10.666666-57.6h401.066666l-21.333333-100.266667H590.933333v-42.666667H832l-19.2-106.666666H569.6v-42.666667h232.533333L774.4 21.333333H405.333333v-42.666666h388.266667c6.4 0 12.8 4.266667 17.066667 10.666666l106.666666 450.133334c4.266667 14.933333-6.4 29.866667-21.333333 29.866666zM277.333333-42.666667H106.666667V512h170.666666c36.266667 0 64-27.733333 64-64v-426.666667c0-36.266667-27.733333-64-64-64z m-128 42.666667h128c12.8 0 21.333333 8.533333 21.333334 21.333333V448c0 12.8-8.533333 21.333333-21.333334 21.333333H149.333333v-469.333333z"  horiz-adv-x="1024" />

    
    <glyph glyph-name="wenzhang5" unicode="&#59005;" d="M661.648 778H249.104c-39.088 0-70.304-31.752-70.304-70.304v-647.392c0-39.096 31.752-70.304 70.304-70.304h525.8c38.552 0 70.296 31.752 70.296 70.304V594.44L661.648 778z m12.664-74.704l96.176-96.184H684.584c-5.408 0-10.272 4.864-10.272 10.272V703.296z m126.928-642.992a26.24 26.24 0 0 0-26.344-26.352H249.104a26.24 26.24 0 0 0-26.344 26.352V707.696a26.24 26.24 0 0 0 26.344 26.344v0.464h381.328v-117.192c0-29.824 24.416-54.16 54.16-54.16h116.656v-502.848zM348.68 509.928h188.968a21.84 21.84 0 0 1 21.944 21.936 21.84 21.84 0 0 1-21.944 21.944H348.68a21.832 21.832 0 0 1-21.944-21.944 21.84 21.84 0 0 1 21.944-21.936zM674.848 251.2H348.68c-12.208 0-21.944-9.744-21.944-21.944s9.736-21.944 21.944-21.944h326.168c12.208 0 21.944 9.744 21.944 21.944S687.064 251.2 674.848 251.2zM348.68 400.144a21.824 21.824 0 0 1-21.944-21.944 21.832 21.832 0 0 1 21.944-21.936h326.168a21.832 21.832 0 0 1 21.944 21.936 21.832 21.832 0 0 1-21.944 21.944H348.68z"  horiz-adv-x="1024" />

    
    <glyph glyph-name="QQ" unicode="&#59019;" d="M512-128C229.226667-128 0 101.226667 0 384S229.226667 896 512 896s512-229.226667 512-512-229.226667-512-512-512z m216.64 513.088C723.306667 517.568 685.632 704 512 704s-211.306667-186.432-216.64-318.912C266.282667 356.544 238.037333 309.909333 234.666667 234.666667c0.917333-24.725333 30.869333-6.122667 63.936 22.293333L298.666667 256c0.384-17.109333 25.450667-69.546667 42.666666-85.333333-84.138667-44.053333-44.928-106.666667 42.666667-106.666667s128 42.666667 128 42.666667 40.405333-42.666667 128-42.666667 126.805333 62.613333 42.666667 106.666667c17.216 15.786667 42.282667 68.224 42.666666 85.333333l0.064 0.96C758.464 228.544 788.416 209.941333 789.333333 234.666667c-3.370667 75.242667-31.616 121.877333-60.693333 150.421333z"  horiz-adv-x="1024" />

    
    <glyph glyph-name="shijian2" unicode="&#58903;" d="M512.384-57.86c-246.953 0-447.139 200.2-447.139 447.14 0 246.943 200.186 447.138 447.139 447.138 246.944 0 447.138-200.195 447.138-447.139 0-246.94-200.194-447.139-447.138-447.139z m0 843.607c-218.962 0-396.468-177.502-396.468-396.468 0-218.962 177.506-396.467 396.468-396.467S908.85 170.317 908.85 389.279 731.346 785.747 512.384 785.747z m229.041-508.58c-6.158-13.193-21.88-18.86-35.073-12.678l-210.116 70.244c-10.05 4.693-15.645 14.9-15.08 25.334-0.127 1.056-0.612 1.933-0.612 3.02V653.342c0 14.586 11.8 26.39 26.386 26.39 14.585 0 26.385-11.804 26.385-26.39v-275.727l195.409-65.35c13.217-6.184 18.885-21.88 12.701-35.098z"  horiz-adv-x="1024" />

    
    <glyph glyph-name="wei_xing" unicode="&#58955;" d="M691.8 547.5c11.7 0 23.2-0.9 34.8-2.1C695.4 690.2 540.5 797.8 363.5 797.8 165.7 797.8 3.7 663.1 3.7 492.1c0-98.7 53.9-179.8 144-242.8l-36-108.1 125.9 62.9c45-8.8 81-18 126-18 11.3 0 22.5 0.5 33.5 1.3-7 24.1-11.1 49.2-11.1 75.4 0 157.2 134.9 284.7 305.8 284.7z m-193.4 97.4c27.2 0 45-17.8 45-44.9 0-26.9-17.9-44.9-45-44.9-26.8 0-54 18-54 44.9 0.1 27.1 27 44.9 54 44.9z m-251.8-89.8c-27 0-54.2 18-54.2 44.9 0 27 27.2 44.9 54.2 44.9 27 0 44.9-17.8 44.9-44.9 0-26.9-17.9-44.9-44.9-44.9z m773.7-287.9c0 143.8-144 260.9-305.7 260.9-171.2 0-306-117.2-306-260.9 0-144.2 134.8-260.9 306-260.9 35.9 0 72 8.9 108 18l98.7-54.1-27 89.9c72.1 54.3 126 126.1 126 207.1z m-404.9 45c-17.9 0-36 17.8-36 35.9 0 17.9 18.1 35.9 36 35.9 27.3 0 45-18 45-35.9 0-18.1-17.7-35.9-45-35.9z m197.9 0c-17.7 0-35.8 17.8-35.8 35.9 0 17.9 18 35.9 35.8 35.9 27 0 45-18 45-35.9 0.1-18.1-17.9-35.9-45-35.9z"  horiz-adv-x="1024" />

    
    <glyph glyph-name="heart-copy" unicode="&#58905;" d="M983.384 514.5350000000001c0 147.456-119.467 266.923-266.923 266.923-81.4649 0-154.283-36.4089-203.207-93.8662-48.9245 57.4578-121.856 93.8662-203.207 93.8662-147.456 0-266.923-119.467-266.923-266.923 0-77.3689 35.6125-142.109 85.5609-195.811L514.275-51.964000000000055l378.994 366.592c48.0142 50.0622 90.112 120.377 90.112 199.907ZM514.275-51.964000000000055L128.569 318.72400000000004C78.507 372.42600000000004 43.008 437.165 43.008 514.5350000000001c0 147.456 119.467 266.923 266.923 266.923 81.4649 0 154.283-36.4089 203.207-93.8662l1.13778-739.555Z"  horiz-adv-x="1024" />

    
    <glyph glyph-name="weixin---" unicode="&#58956;" d="M511.5-115.2C444-115.2 378.6-102 317-76c-59.5 25.2-112.9 61.2-158.8 107-45.9 45.9-81.9 99.3-107 158.8-26 61.6-39.2 127-39.2 194.4S25.2 517 51.3 578.6c25.2 59.5 61.2 112.9 107 158.8 45.9 45.9 99.3 81.9 158.8 107 61.6 26.1 127 39.3 194.4 39.3s132.8-13.2 194.4-39.3c59.5-25.2 112.9-61.2 158.8-107 45.9-45.9 81.9-99.3 107-158.8 26.1-61.6 39.3-127 39.3-194.4s-13.2-132.8-39.3-194.4c-25.2-59.5-61.2-112.9-107-158.8s-99.3-81.9-158.8-107c-61.6-26-127-39.2-194.4-39.2z m0 949c-60.7 0-119.6-11.9-175-35.3-53.5-22.6-101.6-55.1-142.9-96.3-41.3-41.3-73.7-89.4-96.3-142.9C73.8 503.8 62 444.9 62 384.2c0-60.7 11.9-119.6 35.3-175 22.6-53.5 55.1-101.6 96.3-142.9C234.9 25 283-7.4 336.5-30c55.4-23.4 114.3-35.3 175-35.3s119.6 11.9 175 35.3c53.5 22.6 101.6 55.1 142.9 96.3s73.7 89.4 96.3 142.9c23.4 55.4 35.3 114.3 35.3 175s-11.9 119.6-35.3 175c-22.6 53.5-55.1 101.6-96.3 142.9-41.3 41.3-89.4 73.7-142.9 96.3-55.5 23.5-114.3 35.4-175 35.4zM551 332.9c-17.2 0-31.2 14-31.2 31.3 0 17.2 14 31.2 31.2 31.2s31.2-13.9 31.3-31.1c0-17.3-14-31.3-31.3-31.4z m247.1-22.3c0 80.4-72.5 146.2-164.3 151.8-4.3 0.2-8.6 0.4-12.9 0.4-97.9 0-177.2-68.1-177.2-152.2 0-12.4 1.8-24.7 5.3-36.6 19-66.3 88.8-115.6 172-115.6 27-0.1 53.8 5.3 78.7 15.8l39.8-26.8s10.6-7.2 9.6 6.8l-11.3 42.1c37 26.3 59.4 68.8 60.3 114.3zM620.9 475.5c3.8 0 7.5-0.2 11.3-0.4-14.6 85.1-99.9 150.4-203 150.4-113.3 0-205.2-79-205.2-176.2 1.1-54.3 28.5-104.6 73.4-135l-15.2-56.4s-5.2-18.7 14.4-10.4l56.5 38.1c24.5-8.4 50.1-12.6 76-12.6 2.3 0 4.5 0.2 6.8 0.2-3.3 12.2-5 24.7-5 37.4 0 90.9 85.3 164.9 190 164.9z m81-142.5c-17.2 0-31.2 14-31.2 31.3 0 17.2 14 31.2 31.3 31.2 17.2 0 31.2-14 31.2-31.2 0-8.3-3.3-16.2-9.2-22.1-5.8-5.9-13.8-9.2-22.1-9.2zM333 473.4c-17.2 0-31.2 14-31.2 31.3 0 17.2 14 31.2 31.2 31.2s31.2-13.9 31.3-31.1c0-8.3-3.3-16.3-9.1-22.2-5.9-5.9-13.9-9.2-22.2-9.2z m185.3 0c-17.2 0-31.2 14-31.2 31.3 0 17.2 14 31.2 31.2 31.2s31.2-13.9 31.3-31.1c0-17.3-14-31.3-31.3-31.4z m0 0"  horiz-adv-x="1024" />

    
    <glyph glyph-name="love-b" unicode="&#58908;" d="M758.252726 831.979931a269.935247 269.935247 0 0 0 191.897095-77.398495 266.736962 266.736962 0 0 0 77.398495-197.654008A426.011551 426.011551 0 0 0 936.717024 320.25434399999995l22.387995-20.469024-24.946622 17.270739a1455.219638 1455.219638 0 0 0-127.931397-160.553903c-46.055303-49.253588-94.669234-97.227862-145.202136-143.283165-29.424221-26.865593-53.09153-46.69496-63.965698-58.208785a72.920896 72.920896 0 0 0-92.750263 0c-14.072454 11.513826-37.100105 31.982849-63.965698 58.848442-53.731187 48.613931-102.345117 97.227862-145.202135 143.283165a1478.886947 1478.886947 0 0 0-127.931397 159.914246A426.011551 426.011551 0 0 0 64.224898 554.3688a267.376619 267.376619 0 0 0 79.317466 199.572979A272.493875 272.493875 0 0 0 505.588217 768.014232l40.29839-32.622506 40.938047 32.622506a272.493875 272.493875 0 0 0 172.067729 63.965699m0 63.965698a335.18026 335.18026 0 0 1-213.005776-75.479524 336.459574 336.459574 0 0 1-447.759888-20.469023A330.702661 330.702661 0 0 1 0.2592 551.810172a493.175535 493.175535 0 0 1 104.903745-273.773189 1538.375046 1538.375046 0 0 1 136.246938-166.950473c47.334617-51.172559 98.507176-101.065803 149.040077-147.121106 30.703535-27.50525 54.370844-48.613931 69.082954-60.767414a136.886595 136.886595 0 0 1 173.9867 0c14.072454 12.153483 38.379419 32.622506 69.082954 60.127757 50.532902 46.055303 101.065803 95.948548 148.400421 147.121106a1512.14911 1512.14911 0 0 1 136.246937 166.950473 491.896221 491.896221 0 0 1 104.903746 274.412846 330.702661 330.702661 0 0 1-98.507176 248.18691A335.18026 335.18026 0 0 1 758.252726 895.945629z"  horiz-adv-x="1092" />

    
    <glyph glyph-name="weixin" unicode="&#58957;" d="M669.6125 527.83263889c10.2375 0 20.25-0.7875 30.2625-1.96875001-27.3375 126.5625-162.9 220.44375001-317.98125001 220.44375001-173.30625001 0-315.28125001-117.5625-315.28124999-266.90625001 0-86.11875001 47.19375001-156.825 126.225-211.8375l-31.5-94.3875 110.025 54.95625001c39.4875-7.7625 71.26875001-15.75 110.53125001-15.75 9.7875 0 19.6875 0.5625 29.36249998 1.29374999-6.01875001 21.0375-9.73125001 42.975-9.73124999 65.75624999C401.525 416.45763889 519.65 527.83263889 669.6125 527.83263889zM500.01874999 612.99513889c23.7375 0 39.43125001-15.58125001 39.43125001-39.26250002 0-23.5125-15.69375001-39.2625-39.43124999-39.2625-23.68125001 0-47.41875001 15.75-47.41875001 39.2625C452.6 597.4138888800001 476.3375 612.99513889 500.01874999 612.99513889zM279.51874999 534.47013889c-23.7375 0-47.64375001 15.75-47.64374999 39.26249998 0 23.625 23.90625001 39.2625 47.64375001 39.2625 23.45625001 0 39.0375-15.58125001 39.0375-39.2625C318.6125 550.22013889 302.975 534.47013889 279.51874999 534.47013889zM957.1625 283.25763887000005c0 125.49375001-126.05625001 227.7-267.58125001 227.70000002-150.13125001 0-268.3125-102.15-268.31249998-227.70000002 0-125.775 118.18125001-227.7 268.31249998-227.69999998 31.3875 0 62.8875 7.7625 94.50000002 15.63749998l86.45624999-47.19374999-23.7375 78.525C910.1375 149.72013887000003 957.1625 212.38263887000005 957.1625 283.25763887000005zM602.5625 322.57638887999997c-15.58125001 0-31.6125 15.4125-31.6125 31.275 0 15.69375001 15.975 31.3875 31.6125 31.3875 23.9625 0 39.375-15.69375001 39.375-31.3875C641.99375001 338.04513886999996 626.525 322.57638887999997 602.5625 322.57638887999997zM775.98125001 322.57638887999997c-15.75 0-31.3875 15.4125-31.38750002 31.275 0 15.69375001 15.58125001 31.3875 31.3875 31.3875 23.5125 0 39.375-15.69375001 39.375-31.3875C815.4125 338.04513886999996 799.49375001 322.57638887999997 775.98125001 322.57638887999997z"  horiz-adv-x="1024" />

    
    <glyph glyph-name="xin" unicode="&#58918;" d="M1066.676944 794.974109A351.539301 351.539301 0 0 1 584.680751 805.571448a351.539301 351.539301 0 0 1-481.996194-10.597339 344.230792 344.230792 0 0 1 0-490.035554l403.795143-400.140888a109.627641 109.627641 0 0 1 156.402101 0l403.795143 399.775463a344.230792 344.230792 0 0 1 0 490.400979z m-52.255842-438.510563L610.625959-43.677342a36.542547 36.542547 0 0 0-51.890417 0L154.574973 356.463546a271.876549 271.876549 0 0 0 0 386.985572A277.357931 277.357931 0 0 0 534.982887 749.661351L584.680751 706.906571 634.013189 749.661351a277.357931 277.357931 0 0 0 380.407913-8.03936 271.876549 271.876549 0 0 0 0-385.158445zM338.018559 713.118804A155.305824 155.305824 0 0 1 182.712735 557.81298a18.271273 18.271273 0 0 1 36.542546 0A118.763277 118.763277 0 0 0 338.018559 676.576257a18.271273 18.271273 0 0 1 0 36.542547z"  horiz-adv-x="1170" />

    
    <glyph glyph-name="weibo1" unicode="&#58958;" d="M423.5 300.8c-15.7 6.5-36-0.2-45.6-15.3-9.8-15.2-5.2-33.2 10.4-40.3 15.8-7.2 36.8-0.4 46.6 15.2 9.6 15.7 4.5 33.7-11.4 40.4z m0 0M462.2 316.8c-6 2.4-13.5-0.5-17.1-6.4-3.4-5.9-1.5-12.7 4.5-15.2 6.1-2.5 14 0.4 17.5 6.4 3.4 6.1 1.2 12.9-4.9 15.2z m0 0M437.7 421.5c-101.3-10-178.1-71.7-171.5-137.9 6.6-66.2 94-111.8 195.3-101.9 101.3 10 178.1 71.7 171.5 138-6.5 66.2-93.9 111.8-195.3 101.8z m88.9-156.1C506 218.8 446.5 194 396 210.2c-48.7 15.6-69.3 63.5-48 106.6 20.9 42.3 75.4 66.2 123.6 53.7 50-12.8 75.4-59.6 55-105.1z m0 0M511.5 830.9c-246.9 0-447.2-200-447.2-446.7s200.2-446.7 447.2-446.7 447.1 200 447.1 446.7C958.7 631 758.5 830.9 511.5 830.9z m-49.3-693.5c-126.9 0-256.7 61.2-256.7 162 0 52.7 33.5 113.6 91.2 171.1 77.1 76.7 167 111.7 200.8 78 14.9-14.8 16.4-40.5 6.8-71.2-5-15.4 14.6-6.9 14.6-6.9 62.3 26 116.6 27.5 136.5-0.8 10.6-15 9.6-36.2-0.2-60.6-4.5-11.3 1.4-13 10-15.6 35.1-10.8 74.2-37 74.2-83.2-0.1-76.5-110.8-172.8-277.2-172.8zM692 457.7c4.1 12.6 1.5 27-8 37.6-9.6 10.5-23.7 14.5-36.7 11.8-10.9-2.4-21.6 4.6-23.9 15.4-2.3 10.9 4.6 21.5 15.5 23.8 26.7 5.6 55.5-2.6 75.1-24.2 19.6-21.6 24.9-51 16.5-76.8-3.4-10.6-14.8-16.3-25.4-13-10.7 3.5-16.5 14.9-13.1 25.4z m117.6-37.8c-0.1 0-0.1-0.1 0 0-4-12.3-17.2-19-29.5-15.1-12.3 4-19.1 17.1-15.1 29.4 12.2 37.7 4.5 80.6-24.1 112.2-28.6 31.5-70.7 43.6-109.6 35.3-12.7-2.7-25.1 5.4-27.8 18-2.7 12.6 5.4 25 18 27.7 54.7 11.6 114-5.3 154.2-49.7 40.2-44.4 51-104.8 33.9-157.8z m0 0"  horiz-adv-x="1024" />

    
    <glyph glyph-name="ico_search" unicode="&#58983;" d="M898.821851 49.05229699999995c7.036038-3.134235 13.560364-7.54775 19.317122-13.240543l45.222534-45.222535a63.96398 63.96398 0 0 0-90.509032-90.509032l-45.222534 45.222534a63.708124 63.708124 0 0 0-15.223427 24.306313 511.711842 511.711842 0 1 0 86.351373 79.379299zM511.711842-64.03602000000001A447.747862 447.747862 0 1 1 511.711842 831.459704a447.747862 447.747862 0 0 1 0-895.495724z"  horiz-adv-x="1024" />

    
    <glyph glyph-name="fenxiang-yuanshijituantubiao" unicode="&#58909;" d="M848.1 160.29999999999995l-49.6 27.4-10 55.8c-2 10.9-9.7 19.8-20.2 23.3s-22 1-30.2-6.6l-41.4-38.7-56.1 7.7c-11 1.6-21.9-3.1-28.4-12-6.6-8.9-7.7-20.7-3-30.7l5.3-11.4-227.3 106-4.1 14.3 43.6 62.7c7.1 10.2 8 23.4 2.5 34.4-5.6 11.1-16.7 18.2-29 18.6l-51.4 1.8 150.3 150.7-3.4-25.7c-1.6-11.7 3.4-23.3 13-30.3s22.2-8.2 32.8-3.1l61.6 29.1 61.5-29.4c4.4-2.1 9.2-3.2 13.9-3.2 6.7 0 13.3 2.1 18.9 6.1 9.6 6.9 14.6 18.5 13.1 30.3l-8.6 67.6 46.9 49.4c8.1 8.6 11 20.9 7.3 32.2-3.6 11.3-13.1 19.6-24.7 21.8L664.2 721l-32.5 59.9c-5.6 10.4-16.5 16.9-28.3 16.9h-0.1c-11.8 0-22.7-6.4-28.3-16.8l-32.7-59.7-67-12.4c-11.6-2.1-21.1-10.5-24.8-21.7-3.7-11.2-0.9-23.6 7.2-32.2l46.7-49.6-0.2-1.7-182.8-183.3c-0.5-0.6-0.8-1.2-1.2-1.9l-42.6 56.1c-7.5 9.9-19.7 14.8-32 13-12.2-1.9-22.5-10.2-26.7-21.9L192.8 394l-72.1-25.1c-11.7-4.1-20.2-14.2-22.2-26.4s2.8-24.5 12.5-32.1l60.2-47 1.6-76.3c0.3-12.4 7.2-23.6 18.2-29.3 4.9-2.5 10.2-3.8 15.6-3.8 6.6 0 13.2 1.9 18.9 5.8l63.3 42.7 73.1-22.1c11.8-3.6 24.7-0.4 33.5 8.3s12.2 21.5 8.8 33.4l-8 27.8 234.5-109.4 2.5-5.4-24.6-51c-4.8-10-3.8-21.8 2.6-30.8s17.2-13.7 28.3-12.4l56.2 6.9 40.9-39.2c5.7-5.5 13.2-8.4 20.9-8.4 3.1 0 6.1 0.5 9.1 1.4 10.6 3.4 18.4 12.2 20.5 23.1l10.8 55.6 49.9 26.8c9.8 5.2 15.9 15.4 16 26.4-0.1 11.2-6 21.5-15.7 26.8zM490 674.3l61 11.2c9.6 1.8 17.8 7.7 22.5 16.2l29.8 54.4 29.6-54.6c4.7-8.6 12.8-14.5 22.4-16.3l61-11.5-42.7-45c-6.7-7-9.9-16.6-8.7-26.4l7.9-61.5-56 26.8c-4.4 2.1-9.2 3.2-13.9 3.2-4.7 0-9.4-1-13.8-3.1L533 541.2l8.2 61.5c1.3 9.6-1.8 19.2-8.5 26.4L490 674.3zM298 238.10000000000002c-9.7 3-20.2 1.4-28.7-4.3l-59.9-40.4-1.5 72.3c-0.2 10.2-5 19.7-13 25.9l-57 44.5 68.3 23.8c9.6 3.4 17.2 10.8 20.7 20.4l24.7 67.9 43.7-57.6c6.2-8.1 15.5-13 25.8-13.4l72.2-2.5-41.3-59.4c-5.8-8.4-7.6-18.8-4.7-28.6l19.9-69.5-69.2 20.9z m479.7-126.7c-8-4.3-13.6-11.9-15.4-20.9l-9.1-46.9-34.5 33c-5.7 5.4-13.1 8.4-20.8 8.4-1.2 0-2.5-0.1-3.8-0.2l-47.4-5.9 20.8 43c3.9 8.2 4 17.6 0.2 25.9l-20.2 43.3 47.3-6.5c9-1.3 18 1.6 24.7 7.9l34.9 32.6 8.5-46.9c1.6-9 7.1-16.7 15.1-21.1l41.8-23.1-42.1-22.6z"  horiz-adv-x="1024" />

    
    </font>
</defs>
</svg>
